<?xml version="1.0" encoding="UTF-8"?>
<svg version="1.1" xmlns="http://www.w3.org/2000/svg" width="1024" height="559">
<path d="M0 0 C337.92 0 675.84 0 1024 0 C1024 184.47 1024 368.94 1024 559 C686.08 559 348.16 559 0 559 C0 374.53 0 190.06 0 0 Z " fill="#E9EBEA" transform="translate(0,0)"/>
<path d="M0 0 C68.36861314 0 68.36861314 0 80.75 11.0625 C88.39706909 19.28944163 91.28081795 28.99810085 91.1484375 39.90625 C90.7026007 49.19842759 87.71510945 56.82050187 81.5 63.8125 C80.2625 64.8953125 80.2625 64.8953125 79 66 C78.195625 66.721875 77.39125 67.44375 76.5625 68.1875 C73.78529645 70.15186348 71.26207215 71.08965428 68 72 C68.4125 72.58265625 68.825 73.1653125 69.25 73.765625 C72.50415328 78.38536046 75.69990972 83.03356992 78.8125 87.75 C82.34587869 93.09518977 86.04755221 98.30069883 89.85083008 103.45605469 C93 107.7836117 93 107.7836117 93 110 C74.66889024 112.36506974 74.66889024 112.36506974 68.99121094 108.70507812 C65.58018277 105.28801274 63.26141022 101.22363198 61.0390625 96.96679688 C59.56141842 94.16982772 57.80931352 91.57227706 56.0625 88.9375 C55.55847656 88.12152344 55.05445313 87.30554688 54.53515625 86.46484375 C54.02855469 85.65144531 53.52195312 84.83804688 53 84 C52.57074219 82.92621094 52.14148438 81.85242188 51.69921875 80.74609375 C47.83016027 76.80984468 44.4247822 77.23942527 39.06933594 77.11767578 C37.64395508 77.12009277 36.21857422 77.12250977 34.75 77.125 C30.2125 77.08375 25.675 77.0425 21 77 C21 87.89 21 98.78 21 110 C14.07 110 7.14 110 0 110 C0 73.7 0 37.4 0 0 Z " fill="#1D3257" transform="translate(492,217)"/>
<path d="M0 0 C0.99 0.495 0.99 0.495 2 1 C1.23816406 1.82242188 0.47632813 2.64484375 -0.30859375 3.4921875 C-7.75463556 11.53885327 -15.18509491 19.59726057 -22.375 27.875 C-25.82919304 31.84330549 -29.39130558 35.71012559 -32.95483398 39.57983398 C-35.487107 42.33438092 -37.99020203 45.10725075 -40.4375 47.9375 C-45.4780193 53.75633477 -50.76289938 59.35872249 -56 65 C-62.9790013 59.23473806 -69.31605875 52.8698282 -75.5546875 46.31640625 C-80.46924355 41.66092424 -84.40205734 41.58335845 -91.01171875 41.6640625 C-95.22901374 42.13816364 -97.54831172 43.59882555 -101 46 C-101.66 46 -102.32 46 -103 46 C-93.86978283 56.64120382 -84.19838397 66.80370075 -74.60131836 77.02148438 C-68.69609104 83.31264929 -62.84027637 89.6485635 -57 96 C-51.02691684 91.17069873 -46.06406861 85.76080288 -41 80 C-39.46034854 78.28985022 -37.91871248 76.58148489 -36.375 74.875 C-33.76678838 71.97898572 -31.1793451 69.06857864 -28.625 66.125 C-25.17283922 62.15902924 -21.61249119 58.29482354 -18.05175781 54.42675781 C-14.89302035 50.9897558 -11.79361664 47.50978679 -8.734375 43.984375 C-4.44320048 39.0746528 -0.04197892 34.26125182 4.328125 29.421875 C8.93007003 24.319038 13.48833976 19.18273098 18 14 C19.31213495 12.49968066 20.62462751 10.99967399 21.9375 9.5 C22.81728516 8.49453125 22.81728516 8.49453125 23.71484375 7.46875 C24.35099609 6.74171875 24.35099609 6.74171875 25 6 C25 6.99 25 7.98 25 9 C26.44197868 10.44197868 28.17691571 11.11786244 30 12 C30 11.01 30 10.02 30 9 C31.98 9 33.96 9 36 9 C35.85866501 10.77119803 35.71176792 12.54195287 35.5625 14.3125 C35.44068359 15.79169922 35.44068359 15.79169922 35.31640625 17.30078125 C35 20 35 20 34 23 C33.01 23.33 32.02 23.66 31 24 C31.66666667 20 32.33333333 16 33 12 C28.80001078 16.0850959 24.79327807 20.27565938 20.96875 24.71484375 C19.79832811 26.07336916 18.59479617 27.40603222 17.328125 28.67529297 C12.36795212 33.84517904 10.50863063 38.31624145 9 45.25 C8.64518555 46.72762817 8.64518555 46.72762817 8.28320312 48.23510742 C7.77305567 50.36265417 7.27271905 52.49257275 6.78125 54.62451172 C5.4132894 60.53495648 3.95907281 66.42398512 2.5 72.3125 C2.20770508 73.49287842 1.91541016 74.67325684 1.61425781 75.8894043 C-0.13533409 82.85136253 -2.01304657 89.74049994 -4.25 96.5625 C-4.48396484 97.28800049 -4.71792969 98.01350098 -4.95898438 98.76098633 C-6.11210545 102.13237863 -7.05477842 104.86699159 -10 107 C-13.61241547 108.20413849 -16.93468306 108.1711778 -20.69677734 108.19287109 C-21.87044609 108.20513733 -21.87044609 108.20513733 -23.06782532 108.21765137 C-25.6571883 108.24246483 -28.24649668 108.25900916 -30.8359375 108.2734375 C-31.72058308 108.27876118 -32.60522865 108.28408485 -33.51668167 108.28956985 C-38.19731021 108.31628125 -42.87791224 108.33566432 -47.55859375 108.35009766 C-51.43285669 108.3634496 -55.30659451 108.39132775 -59.18066406 108.43212891 C-63.85908122 108.48140051 -68.53702124 108.50621154 -73.2156868 108.51332474 C-74.99790277 108.52004289 -76.78010786 108.53527967 -78.56217575 108.55921555 C-81.0568276 108.59081632 -83.54963436 108.59091248 -86.04443359 108.58349609 C-86.7791539 108.59990143 -87.51387421 108.61630676 -88.27085876 108.63320923 C-92.22234122 108.58515911 -93.84009264 108.13186757 -96.93132019 105.58268738 C-98.67684741 103.40344673 -99.79314084 101.8872296 -100.65234375 99.27734375 C-100.88163574 98.5901123 -101.11092773 97.90288086 -101.34716797 97.19482422 C-102.49524868 93.33497172 -103.56433597 89.46384144 -104.5625 85.5625 C-104.77068359 84.76779297 -104.97886719 83.97308594 -105.19335938 83.15429688 C-106.1957491 79.29242547 -107.13393872 75.42976767 -107.96484375 71.52734375 C-108.84500504 67.49433309 -109.98673047 63.57821225 -111.19726562 59.63330078 C-112.63278554 54.92420168 -113.95340317 50.18644324 -115.25 45.4375 C-115.53101563 44.46103516 -115.81203125 43.48457031 -116.1015625 42.47851562 C-117.87062312 35.93211555 -119.1891612 29.3783224 -116 23 C-116.99 23 -117.98 23 -119 23 C-119 22.01 -119 21.02 -119 20 C-114.41665522 19.10560898 -109.98750168 18.85696142 -105.33325195 18.87060547 C-104.21727379 18.86797699 -104.21727379 18.86797699 -103.07875061 18.86529541 C-100.63190338 18.86091354 -98.18512916 18.86380347 -95.73828125 18.8671875 C-94.02442918 18.86651305 -92.31057721 18.86554185 -90.59672546 18.86428833 C-87.00661304 18.86281601 -83.41652554 18.86494962 -79.82641602 18.86962891 C-75.25171816 18.87530433 -70.67707927 18.87205813 -66.10238361 18.86605644 C-62.56165636 18.86241979 -59.02094277 18.86360396 -55.48021507 18.86618423 C-53.79511699 18.86684606 -52.11001762 18.86605143 -50.42492104 18.86370468 C-41.57259098 18.85408695 -32.80401457 18.93878324 -24 20 C-23.13375 18.5459375 -23.13375 18.5459375 -22.25 17.0625 C-20 14 -20 14 -18 13.125 C-16.00346171 13.00021636 -14.00043398 13 -12 13 C-10.36946391 11.82787157 -10.36946391 11.82787157 -8.984375 10.15625 C-8.45585937 9.56972656 -7.92734375 8.98320312 -7.3828125 8.37890625 C-6.84398437 7.75886719 -6.30515625 7.13882813 -5.75 6.5 C-5.19570313 5.87996094 -4.64140625 5.25992188 -4.0703125 4.62109375 C-2.70365465 3.08949443 -1.35050499 1.54586106 0 0 Z " fill="#EAEBEA" transform="translate(418,224)"/>
<path d="M0 0 C6.27 0 12.54 0 19 0 C19.495 19.8 19.495 19.8 20 40 C21.32 38.68 22.64 37.36 24 36 C30.72934932 31.14771776 37.6474071 30.53081837 45.6875 30.5 C46.57816162 30.49387695 47.46882324 30.48775391 48.38647461 30.48144531 C60.3658867 30.70871213 69.94576573 36.17438879 78.171875 44.67578125 C87.34598341 56.33944472 87.27786728 70.87521288 86 85 C84.23091643 93.96261268 79.02908806 102.22814721 72 108 C65.31318869 112.42718796 59.09472813 115.86508786 51 116 C50.28457031 116.02449219 49.56914063 116.04898438 48.83203125 116.07421875 C46.54701874 116.1253464 44.28400892 116.07821948 42 116 C41.2678125 115.99484375 40.535625 115.9896875 39.78125 115.984375 C31.49818942 115.57605511 25.40670921 110.89666104 19 106 C18.67 108.64 18.34 111.28 18 114 C12.06 114 6.12 114 0 114 C0 76.38 0 38.76 0 0 Z " fill="#1B2F55" transform="translate(696,212)"/>
<path d="M0 0 C0.95132812 -0.01546875 1.90265625 -0.0309375 2.8828125 -0.046875 C11.74990952 0.00171183 19.09947567 2.62243008 25.68359375 8.671875 C30.6843941 14.50822055 32.40991096 21.13964383 34.25 28.5 C72.2 28.83 110.15 29.16 149.25 29.5 C147.27 31.81 145.29 34.12 143.25 36.5 C142.47275574 37.79761513 142.47275574 37.79761513 141.67980957 39.1214447 C139.46697719 42.58770861 137.32484492 45.00955954 133.1902771 45.986866 C126.64108529 46.79288827 120.05056531 46.53041819 113.46875 46.37890625 C111.32786744 46.36210622 109.18695013 46.34930164 107.04602051 46.34031677 C101.42927391 46.30606248 95.81464438 46.21775151 90.19873047 46.11798096 C84.46090329 46.02567448 78.72273172 45.98475792 72.984375 45.93945312 C61.73865655 45.84312381 50.49450477 45.68965426 39.25 45.5 C41.76315048 55.56507828 44.28046178 65.6286471 46.85986328 75.67700195 C47.20824373 77.03667637 47.5552107 78.39671361 47.90087891 79.75708008 C48.41246726 81.76988282 48.92841374 83.7815241 49.4453125 85.79296875 C49.74453613 86.9636792 50.04375977 88.13438965 50.35205078 89.34057617 C51.1551016 92.16610108 52.15597011 94.7795142 53.25 97.5 C53.68128071 99.14051594 54.07503147 100.79128971 54.43359375 102.44921875 C54.63919922 103.38056641 54.84480469 104.31191406 55.05664062 105.27148438 C55.26482422 106.23376953 55.47300781 107.19605469 55.6875 108.1875 C58.0489795 122.89964073 58.0489795 122.89964073 66.25 134.5 C69.34799446 135.53266482 71.57259273 135.65509525 74.82299805 135.70532227 C75.96395432 135.72526749 77.10491058 135.74521271 78.28044128 135.76576233 C79.51176285 135.78247482 80.74308441 135.79918732 82.01171875 135.81640625 C83.90311333 135.8475779 83.90311333 135.8475779 85.8327179 135.87937927 C89.18145458 135.93372122 92.53020205 135.98396166 95.87902832 136.03222656 C99.29766229 136.08250357 102.71620826 136.13815724 106.13476562 136.19335938 C112.83977362 136.300535 119.54484753 136.40230512 126.25 136.5 C112.73904827 147.62162855 93.03738416 151.63097257 75.9375 151.8125 C75.03837891 151.84150391 74.13925781 151.87050781 73.21289062 151.90039062 C65.4970439 151.97291847 59.95871143 149.86008909 53.5 145.75 C48.11763137 140.36763137 45.39161484 133.97882311 43.375 126.75 C43.00882568 125.48917603 43.00882568 125.48917603 42.63525391 124.20288086 C40.12391567 115.3910707 37.93522621 106.49090669 35.78564453 97.58496094 C34.12542983 90.75340845 32.23667577 84.04567413 30.12939453 77.33862305 C29.13369757 74.12458403 28.28397691 70.89690365 27.5 67.625 C27.17429182 66.29529937 26.84734045 64.96590298 26.51953125 63.63671875 C26.32955566 62.86505371 26.13958008 62.09338867 25.94384766 61.29833984 C24.55775759 55.70813424 23.14723095 50.12429788 21.7232666 44.54364014 C21.36896164 43.15083982 21.01679309 41.75749411 20.66687012 40.36358643 C20.16743675 38.37508849 19.66065424 36.38858844 19.15234375 34.40234375 C18.85835693 33.24210693 18.56437012 32.08187012 18.26147461 30.88647461 C16.32708734 24.18273773 16.32708734 24.18273773 12.36303711 18.58569336 C9.87710641 17.30840465 8.2283267 17.13134973 5.44140625 17.12890625 C4.07338867 17.10280273 4.07338867 17.10280273 2.67773438 17.07617188 C0.77149896 17.067076 -1.13475896 17.06185164 -3.04101562 17.06054688 C-7.35931849 16.97216947 -10.06440071 16.89213877 -13.87109375 14.71484375 C-15.84029788 12.39355738 -16.43351479 11.49595709 -16.375 8.5 C-16.38789063 7.84 -16.40078125 7.18 -16.4140625 6.5 C-13.9560612 -0.90292156 -6.41097308 -0.10257557 0 0 Z " fill="#3660A1" transform="translate(257.75,196.5)"/>
<path d="M0 0 C1.53125 1.265625 1.53125 1.265625 2.5 3.140625 C2.53125 5.265625 2.53125 5.265625 0.90625 7.34375 C0.1225 8.06046875 -0.66125 8.7771875 -1.46875 9.515625 C-5.08104719 12.93281355 -8.42551785 16.40742861 -11.6640625 20.17578125 C-15.19670226 24.26660867 -18.84706725 28.25372728 -22.46875 32.265625 C-23.96903679 33.93203351 -25.46903872 35.59869853 -26.96875 37.265625 C-32.96875 43.93229167 -38.96875 50.59895833 -44.96875 57.265625 C-45.70867187 58.08804688 -46.44859375 58.91046875 -47.2109375 59.7578125 C-48.73583244 61.45155394 -50.26190402 63.14423669 -51.7890625 64.8359375 C-55.16787708 68.58126756 -58.53770965 72.33080707 -61.84375 76.140625 C-65.29726561 80.10815224 -68.8587894 83.9741014 -72.42138672 87.84326172 C-74.97400763 90.62021182 -77.49843205 93.41525813 -79.96875 96.265625 C-82.90719065 99.65613344 -85.92991302 102.96529482 -88.96875 106.265625 C-92.6129194 110.22422223 -96.20788779 114.21739332 -99.734375 118.28125 C-102.49459749 121.43934239 -105.30748581 124.54926517 -108.125 127.65625 C-109.7476168 129.46276338 -111.35061204 131.28702218 -112.9375 133.125 C-113.7315625 134.03765625 -114.525625 134.9503125 -115.34375 135.890625 C-116.06304687 136.72851562 -116.78234375 137.56640625 -117.5234375 138.4296875 C-119.46875 140.265625 -119.46875 140.265625 -122.46875 140.265625 C-124.265625 138.796875 -124.265625 138.796875 -126.21875 136.765625 C-126.85296875 136.1159375 -127.4871875 135.46625 -128.140625 134.796875 C-130.05062189 132.72023408 -131.91167779 130.61777042 -133.76171875 128.48828125 C-137.41602548 124.29339082 -141.20396557 120.2399219 -145.03125 116.203125 C-146.42848274 114.72144594 -147.825616 113.23967305 -149.22265625 111.7578125 C-152.0163677 108.79916105 -154.81706409 105.84730754 -157.62109375 102.8984375 C-158.90377823 101.54179184 -160.18633604 100.18502638 -161.46875 98.828125 C-162.07404541 98.19575928 -162.67934082 97.56339355 -163.30297852 96.91186523 C-167.46875 92.49210563 -167.46875 92.49210563 -167.46875 90.265625 C-161.60170312 86.11720801 -156.62095557 84.3829133 -149.39453125 84.72265625 C-141.84222119 86.1242198 -137.01018769 91.3783055 -132.30859375 97.09765625 C-128.94730978 101.05840487 -125.17720786 104.63284995 -121.46875 108.265625 C-116.46287086 104.21831846 -112.18706326 99.87093217 -107.9296875 95.046875 C-105.2714267 92.04261835 -102.56301733 89.0894801 -99.84375 86.140625 C-96.26490908 82.24940878 -92.74042273 78.31880145 -89.27734375 74.32421875 C-86.18974035 70.8098192 -83.02002304 67.36987323 -79.8671875 63.9140625 C-77.91637857 61.75991193 -75.99481388 59.58844031 -74.09375 57.390625 C-70.48962859 53.24248527 -66.75299375 49.22124262 -63.01879883 45.19067383 C-58.45292101 40.25935449 -53.95138001 35.27273092 -49.46875 30.265625 C-41.62930182 21.52216838 -41.62930182 21.52216838 -37.66796875 17.21484375 C-37.19190186 16.69712402 -36.71583496 16.1794043 -36.2253418 15.64599609 C-35.26859778 14.60724545 -34.31044332 13.569792 -33.35083008 12.53369141 C-30.88014245 9.85482183 -28.53601611 7.12697221 -26.28125 4.265625 C-19.12214468 -4.10030093 -9.4498416 -4.7249208 0 0 Z " fill="#E69433" transform="translate(482.46875,179.734375)"/>
<path d="M0 0 C6.6 0 13.2 0 20 0 C20 27.72 20 55.44 20 84 C13.73 84 7.46 84 1 84 C0.505 79.545 0.505 79.545 0 75 C-1.010625 75.928125 -2.02125 76.85625 -3.0625 77.8125 C-10.65836582 84.29267527 -19.26823965 85.42536848 -28.97265625 85.265625 C-39.85466668 84.31081634 -47.89275656 80.29863107 -55 72 C-56.7449071 69.42305273 -58.0011093 66.94238455 -59 64 C-59.3407959 63.06808838 -59.6815918 62.13617676 -60.03271484 61.17602539 C-61.60878908 55.58725787 -61.24530515 49.82382807 -61.1953125 44.06640625 C-61.1924826 42.83333237 -61.18965271 41.60025848 -61.18673706 40.32981873 C-61.1755786 36.40727875 -61.15048151 32.4849705 -61.125 28.5625 C-61.11383396 25.89648772 -61.10583976 23.23047761 -61.09765625 20.56445312 C-61.07565338 14.04288002 -61.04115297 7.52147925 -61 1 C-54.73 1 -48.46 1 -42 1 C-41.98541748 2.43722412 -41.97083496 3.87444824 -41.95581055 5.35522461 C-41.89758245 10.71728669 -41.82035116 16.07893958 -41.73754883 21.44067383 C-41.70441454 23.75571014 -41.67634728 26.070825 -41.65356445 28.38598633 C-41.6198069 31.72511078 -41.56747969 35.06352281 -41.51171875 38.40234375 C-41.50532883 39.42770737 -41.4989389 40.45307098 -41.49235535 41.50950623 C-41.32068794 50.01160632 -40.1252792 57.68330582 -34 64 C-29.09253381 67.27164413 -23.81867206 67.60119121 -18 67 C-12.38466425 65.59098586 -7.02768504 63.3581912 -3.92669678 58.22242737 C-0.79091805 51.76747066 -0.39879097 46.07054407 -0.390625 38.96484375 C-0.37408875 37.84557999 -0.35755249 36.72631622 -0.34051514 35.57313538 C-0.29225806 32.02786651 -0.27071294 28.48302593 -0.25 24.9375 C-0.22182181 22.52146309 -0.19189182 20.10544593 -0.16015625 17.68945312 C-0.08650455 11.79300403 -0.03679348 5.8967896 0 0 Z " fill="#1B3056" transform="translate(658,243)"/>
<path d="M0 0 C1.19805605 3.59416814 0.70542017 4.81454399 -0.3359375 8.40625 C-0.65377197 9.52467285 -0.97160645 10.6430957 -1.29907227 11.79541016 C-1.65412842 13.0179248 -2.00918457 14.24043945 -2.375 15.5 C-3.12661911 18.14167985 -3.87045925 20.78552206 -4.61328125 23.4296875 C-4.80846848 24.12242767 -5.0036557 24.81516785 -5.20475769 25.52890015 C-7.24186273 32.79342002 -9.12947455 40.09457144 -10.99554443 47.40460205 C-11.56281456 49.62623194 -12.13292523 51.84711698 -12.70361328 54.06787109 C-14.48402466 61.00643078 -16.23911409 67.95001104 -17.94921875 74.90625 C-18.254646 76.13005371 -18.56007324 77.35385742 -18.87475586 78.61474609 C-19.43713473 80.87022264 -19.98958505 83.1282108 -20.52954102 85.38916016 C-22.55644395 93.4619476 -25.28785057 101.38115338 -31.875 106.875 C-32.49117188 107.40867187 -33.10734375 107.94234375 -33.7421875 108.4921875 C-41.51003719 113.67971342 -48.55699467 113.39869093 -57.68359375 113.29296875 C-59.10848034 113.28736582 -60.53337275 113.28309902 -61.95826721 113.28010559 C-65.68855047 113.26871153 -69.41847716 113.23929225 -73.14862061 113.20599365 C-76.96296365 113.17517458 -80.77736492 113.1615751 -84.59179688 113.14648438 C-92.06135957 113.11441644 -99.53062961 113.06328718 -107 113 C-107 112.67 -107 112.34 -107 112 C-105.87464844 111.78085937 -104.74929688 111.56171875 -103.58984375 111.3359375 C-91.23661615 108.82417317 -79.89948972 105.53969383 -69 99 C-87.15 98.67 -105.3 98.34 -124 98 C-124 97.67 -124 97.34 -124 97 C-122.55086967 96.99120064 -122.55086967 96.99120064 -121.07246399 96.98222351 C-111.96456518 96.92499134 -102.85690503 96.85222715 -93.74924946 96.76428509 C-89.06698136 96.71957227 -84.38480046 96.68031815 -79.70239258 96.65356445 C-75.18294164 96.62754056 -70.66382607 96.58714465 -66.14458275 96.53681374 C-64.42107505 96.52013883 -62.69750933 96.50862843 -60.97393227 96.50238609 C-58.55819226 96.49275168 -56.14331145 96.46470127 -53.7277832 96.43237305 C-53.01640198 96.43380814 -52.30502075 96.43524323 -51.57208252 96.4367218 C-47.23115946 96.35465155 -44.43329802 95.69855084 -41 93 C-39.80839554 90.61992689 -39.01011869 88.58247777 -38.25 86.0625 C-38.01104004 85.31250732 -37.77208008 84.56251465 -37.52587891 83.78979492 C-34.10910093 72.64854412 -31.45321514 61.26473529 -28.695755 49.94625854 C-28.15340828 47.72736807 -27.60333492 45.5104952 -27.05249023 43.29370117 C-26.35281094 40.47263217 -25.6925914 37.64636743 -25.05883789 34.80981445 C-23.31671524 27.2851779 -21.46364119 21.83792565 -15.6875 16.5625 C-14.52793468 15.41347765 -13.36907513 14.2637426 -12.2109375 13.11328125 C-11.65760742 12.5817041 -11.10427734 12.05012695 -10.53417969 11.50244141 C-8.50728129 9.51747439 -6.65422079 7.40644523 -4.8125 5.25 C-3.24774442 3.42775299 -1.70027435 1.70027435 0 0 Z " fill="#EE9D32" transform="translate(451,235)"/>
<path d="M0 0 C5.5086953 4.15686823 9.26548557 9.29044118 11 16 C12.02981886 25.88104674 10.98623146 34.37014192 4.6484375 42.23828125 C0.35170534 46.83028647 -3.83471823 48.74460028 -9.953125 49.23828125 C-17.95920565 49.41851292 -23.7439656 49.01311007 -29.7109375 43.38671875 C-36.77530979 35.61590923 -37.80589269 28.56209081 -37.46875 18.4375 C-37.02107741 12.52822176 -35.12900341 8.28037217 -31 4 C-22.1139882 -3.44337776 -10.52500903 -6.1487059 0 0 Z " fill="#E7EAEB" transform="translate(752,262)"/>
<path d="M0 0 C7.6415625 -0.0928125 7.6415625 -0.0928125 15.4375 -0.1875 C17.02618896 -0.21481201 18.61487793 -0.24212402 20.25170898 -0.27026367 C28.96689722 -0.32140333 36.18582949 0.00451613 43.8125 4.75 C48.92235589 10.00585177 50.28168888 13.6442113 50.5625 20.9375 C50.35712085 27.17837614 49.49056901 31.53102026 45 36 C38.44662849 41.25855214 32.84042442 42.13083834 24.51171875 42.09765625 C23.22483154 42.09515869 21.93794434 42.09266113 20.61206055 42.09008789 C18.98695557 42.08098389 17.36185059 42.07187988 15.6875 42.0625 C7.9221875 42.0315625 7.9221875 42.0315625 0 42 C0 28.14 0 14.28 0 0 Z " fill="#E6E9EA" transform="translate(512,234)"/>
<path d="M0 0 C0.495 1.98 0.495 1.98 1 4 C2.65 4 4.3 4 6 4 C4.66000502 7.006818 3.20154709 8.99762609 0.8125 11.25 C-2.34371777 14.31511045 -5.25130559 17.51072009 -8.125 20.83984375 C-11.68974364 24.94672549 -15.35607148 28.96345965 -19 33 C-20.50028679 34.66640851 -22.00028872 36.33307353 -23.5 38 C-25.7717129 40.52500493 -28.04435414 43.04913304 -30.3203125 45.5703125 C-33.69912708 49.31564256 -37.06895965 53.06518207 -40.375 56.875 C-45.13963719 62.349264 -50.08193952 67.66394884 -55 73 C-61.43673476 67.87987008 -66.81843667 61.8891424 -72.33349609 55.82373047 C-75.15623014 52.73468515 -78.01667285 49.68107306 -80.875 46.625 C-81.44951904 46.00866699 -82.02403809 45.39233398 -82.6159668 44.75732422 C-85.7291853 41.4189861 -88.85594763 38.09448463 -92 34.78515625 C-92.64855957 34.09921387 -93.29711914 33.41327148 -93.96533203 32.70654297 C-95.21745659 31.38270378 -96.47351556 30.0625724 -97.73388672 28.74658203 C-102 24.22496873 -102 24.22496873 -102 22 C-96.13295312 17.85158301 -91.15220557 16.1172883 -83.92578125 16.45703125 C-76.37347119 17.8585948 -71.54143769 23.1126805 -66.83984375 28.83203125 C-63.47855978 32.79277987 -59.70845786 36.36722495 -56 40 C-59.52032428 40 -60.4385343 39.29648649 -63 37 C-63 36.34 -63 35.68 -63 35 C-63.66 35 -64.32 35 -65 35 C-65.33 34.34 -65.66 33.68 -66 33 C-68.01669827 31.86649466 -68.01669827 31.86649466 -70 31 C-70 30.01 -70 29.02 -70 28 C-70.99 27.67 -71.98 27.34 -73 27 C-73.598125 26.21625 -74.19625 25.4325 -74.8125 24.625 C-78.31652053 20.42017537 -82.0610579 18.99786709 -87.375 18.3125 C-88.57125 18.209375 -89.7675 18.10625 -91 18 C-90.34644531 18.74443359 -90.34644531 18.74443359 -89.6796875 19.50390625 C-89.08414062 20.18324219 -88.48859375 20.86257813 -87.875 21.5625 C-87.23433594 22.28953125 -86.59367187 23.0165625 -85.93359375 23.765625 C-84.73464762 25.15107386 -83.55574919 26.55449487 -82.41015625 27.984375 C-79.30699287 31.83657781 -76.70370791 34.09611823 -72 36 C-72 36.99 -72 37.98 -72 39 C-71.34 39 -70.68 39 -70 39 C-68.45017999 41.32473002 -67.16328291 43.61900654 -66.0625 46.1875 C-64.70786803 48.49834277 -63.39681682 48.8720862 -61 50 C-60.34 50.721875 -59.68 51.44375 -59 52.1875 C-58.34 52.785625 -57.68 53.38375 -57 54 C-54.90708843 53.91428339 -54.90708843 53.91428339 -53 53 C-52.01 52.67 -51.02 52.34 -50 52 C-49.71125 51.4225 -49.4225 50.845 -49.125 50.25 C-47.9389632 47.87792641 -46.49229865 46.40721963 -44.59375 44.5859375 C-42.62507014 42.62690803 -40.78767877 40.5713958 -38.9375 38.5 C-34.70853724 33.76640471 -30.40987964 29.10231819 -26.07397461 24.46679688 C-24.01575395 22.25261421 -22.04872203 20.06724081 -20.2734375 17.6171875 C-19.85320312 17.08351563 -19.43296875 16.54984375 -19 16 C-18.34 16 -17.68 16 -17 16 C-16.63648438 15.16855469 -16.63648438 15.16855469 -16.265625 14.3203125 C-14.72739665 11.50022718 -12.86871607 9.28918327 -10.75 6.875 C-10.00234375 6.00617188 -9.2546875 5.13734375 -8.484375 4.2421875 C-5.7419816 1.76713433 -3.54708377 0.91240016 0 0 Z " fill="#C97733" transform="translate(417,248)"/>
<path d="M0 0 C0.99 2.97 0.99 2.97 2 6 C1.36384766 6.61875 1.36384766 6.61875 0.71484375 7.25 C-3.07237912 10.9789579 -6.65271608 14.81726483 -10.125 18.83984375 C-13.68974364 22.94672549 -17.35607148 26.96345965 -21 31 C-22.50028679 32.66640851 -24.00028872 34.33307353 -25.5 36 C-43.5 56 -43.5 56 -45.73828125 58.4609375 C-47.31195311 60.22758121 -48.84873681 62.02749232 -50.35546875 63.8515625 C-51.50982422 65.22441406 -51.50982422 65.22441406 -52.6875 66.625 C-53.71423828 67.88183594 -53.71423828 67.88183594 -54.76171875 69.1640625 C-57 71 -57 71 -60.26953125 71.2734375 C-61.17058594 71.18320313 -62.07164062 71.09296875 -63 71 C-63.33 70.01 -63.66 69.02 -64 68 C-65.485 68.495 -65.485 68.495 -67 69 C-67.33 68.01 -67.66 67.02 -68 66 C-67.34 66 -66.68 66 -66 66 C-66 65.34 -66 64.68 -66 64 C-65.34 64 -64.68 64 -64 64 C-63.73574219 63.40703125 -63.47148437 62.8140625 -63.19921875 62.203125 C-61.95629575 59.91970946 -60.69598354 58.52573277 -58.8125 56.75 C-55.45975538 53.51649525 -52.45244288 50.08795743 -49.48046875 46.50390625 C-48.99191406 46.00761719 -48.50335938 45.51132813 -48 45 C-47.34 45 -46.68 45 -46 45 C-45.9175 44.4225 -45.835 43.845 -45.75 43.25 C-44.7924861 40.3774583 -43.18571625 39.04910899 -41 37 C-40.67 36.34 -40.34 35.68 -40 35 C-39.34 35 -38.68 35 -38 35 C-37.78085937 34.46246094 -37.56171875 33.92492187 -37.3359375 33.37109375 C-35.54194161 30.18701332 -33.1237784 27.69608092 -30.625 25.0625 C-29.65730841 24.03400426 -28.69114021 23.00407291 -27.7265625 21.97265625 C-27.26282227 21.47781738 -26.79908203 20.98297852 -26.32128906 20.47314453 C-25.07159727 19.07982593 -23.9184808 17.60161465 -22.7734375 16.12109375 C-22.18820312 15.42113281 -21.60296875 14.72117188 -21 14 C-20.34 14 -19.68 14 -19 14 C-18.72929687 13.42378906 -18.45859375 12.84757813 -18.1796875 12.25390625 C-16.98725121 9.97564222 -15.65862379 7.99954856 -14.125 5.9375 C-13.63257813 5.26589844 -13.14015625 4.59429687 -12.6328125 3.90234375 C-8.50057699 -0.91200719 -6.24842441 -1.32178209 0 0 Z " fill="#DF9033" transform="translate(481,181)"/>
<path d="M0 0 C2.07866137 2.49439364 3.54494263 5.02578914 4.9375 7.9375 C8.21721771 14.57063694 12.24223373 18.87635624 19 22 C21.73196586 22.63652946 24.18204761 22.84903826 27 23 C26.34 22.34 25.68 21.68 25 21 C54.7 21.495 54.7 21.495 85 22 C71.24596594 33.00322724 51.98179541 37.12890875 34.6875 37.3125 C33.78837891 37.34150391 32.88925781 37.37050781 31.96289062 37.40039062 C24.2470439 37.47291847 18.70871143 35.36008909 12.25 31.25 C4.77483537 23.77483537 2.40562454 14.03196617 0 4 C0 2.68 0 1.36 0 0 Z " fill="#254475" transform="translate(299,311)"/>
<path d="M0 0 C0.495 0.99 0.495 0.99 1 2 C-1.67328507 9.99063897 -6.53583266 16.22178359 -14.08203125 20.05859375 C-21.17979294 22.89498418 -28.2244958 23.14154594 -35.7734375 23.09765625 C-36.6971817 23.0962413 -37.6209259 23.09482635 -38.57266235 23.09336853 C-41.50680862 23.08779609 -44.44087701 23.07524869 -47.375 23.0625 C-49.37109264 23.05748144 -51.36718649 23.05291915 -53.36328125 23.04882812 C-58.24221725 23.03783569 -63.12109545 23.0205901 -68 23 C-68 22.67 -68 22.34 -68 22 C-66.87464844 21.78085937 -65.74929688 21.56171875 -64.58984375 21.3359375 C-52.23661615 18.82417317 -40.89948972 15.53969383 -30 9 C-48.15 8.67 -66.3 8.34 -85 8 C-85 7.67 -85 7.34 -85 7 C-83.55086967 6.99120064 -83.55086967 6.99120064 -82.07246399 6.98222351 C-72.96456518 6.92499134 -63.85690503 6.85222715 -54.74924946 6.76428509 C-50.06698136 6.71957227 -45.38480046 6.68031815 -40.70239258 6.65356445 C-36.18294164 6.62754056 -31.66382607 6.58714465 -27.14458275 6.53681374 C-25.42107505 6.52013883 -23.69750933 6.50862843 -21.97393227 6.50238609 C-19.55819226 6.49275168 -17.14331145 6.46470127 -14.7277832 6.43237305 C-14.01640198 6.43380814 -13.30502075 6.43524323 -12.57208252 6.4367218 C-8.22028603 6.35444597 -5.45438905 5.67782269 -2 3 C-1.34 2.01 -0.68 1.02 0 0 Z " fill="#BD6C31" transform="translate(412,325)"/>
<path d="M0 0 C1.93622341 1.60034792 2.16238441 2.82701362 2.53125 5.265625 C1.54125 5.265625 0.55125 5.265625 -0.46875 5.265625 C-0.96375 3.780625 -0.96375 3.780625 -1.46875 2.265625 C-6.13368434 1.3171116 -6.13368434 1.3171116 -10.78125 1.890625 C-12.63842216 3.17681787 -12.63842216 3.17681787 -13.34375 5.453125 C-14.90259602 9.35024006 -17.41871323 12.38963924 -20.46875 15.265625 C-21.12875 15.265625 -21.78875 15.265625 -22.46875 15.265625 C-22.71109375 15.83796875 -22.9534375 16.4103125 -23.203125 17 C-24.70283134 19.68465949 -26.4859915 21.40437716 -28.71875 23.515625 C-32.35962755 27.05096986 -35.41454262 30.64793729 -38.27734375 34.83203125 C-38.67050781 35.30511719 -39.06367188 35.77820313 -39.46875 36.265625 C-40.12875 36.265625 -40.78875 36.265625 -41.46875 36.265625 C-41.46875 36.925625 -41.46875 37.585625 -41.46875 38.265625 C-43.46875 37.265625 -43.46875 37.265625 -44.46875 35.265625 C-45.45875 35.265625 -46.44875 35.265625 -47.46875 35.265625 C-48.12875 35.265625 -48.78875 35.265625 -49.46875 35.265625 C-49.79875 35.925625 -50.12875 36.585625 -50.46875 37.265625 C-51.78875 37.265625 -53.10875 37.265625 -54.46875 37.265625 C-54.736875 37.86375 -55.005 38.461875 -55.28125 39.078125 C-56.45368467 41.23787308 -57.66244282 42.62352756 -59.46875 44.265625 C-60.12875 43.935625 -60.78875 43.605625 -61.46875 43.265625 C-60.61152344 42.3478125 -59.75429688 41.43 -58.87109375 40.484375 C-50.99610364 32.03793649 -50.99610364 32.03793649 -43.34375 23.390625 C-40.23195175 19.86392031 -37.01838766 16.43036254 -33.80932617 12.9921875 C-31.1580918 10.14145182 -28.62727104 7.26491613 -26.21875 4.203125 C-19.09838016 -4.14203149 -9.38729721 -4.6936486 0 0 Z " fill="#F4A634" transform="translate(482.46875,179.734375)"/>
<path d="M0 0 C3.84755846 3.17841786 6.74333781 6.13003262 7.4375 11.1875 C6.88813667 15.97480899 5.15184603 19.3598398 2 23 C-2.33579924 24.44526641 -6.46873272 24.53564501 -11 24 C-14.39488422 21.94892412 -15.80323081 20.29515379 -18 17 C-18.66036734 12.96133239 -18.89569891 8.81730647 -17.0546875 5.08203125 C-12.45124162 -0.78084793 -6.9392662 -2.20539432 0 0 Z " fill="#1D3256" transform="translate(337,358)"/>
<path d="M0 0 C2.42796104 1.44960543 3.33014949 2.63917687 5 5 C5.33 5.33 5.66 5.66 6 6 C7.12116269 16.4428296 7.12116269 16.4428296 3.75 21.125 C-0.75490495 24.1965261 -3.38912135 25.67330544 -9 25 C-12.89973629 22.85896831 -15.63370605 20.76023147 -18 17 C-18.91136602 12.78228282 -18.75062185 8.78945716 -17.07421875 4.79296875 C-12.87358495 -1.29113507 -6.8521239 -1.41073139 0 0 Z " fill="#1D3156" transform="translate(405,358)"/>
<path d="M0 0 C14.19642857 -0.66964286 14.19642857 -0.66964286 17.8125 2.375 C21.18838409 6.42606091 21.4405901 8.71291876 21 14 C19.29806409 17.34083716 18.11577134 19.4246804 14.75 21.16015625 C11.59160772 22.12472207 8.98323699 22.19743378 5.6875 22.125 C3.810625 22.08375 1.93375 22.0425 0 22 C0 14.74 0 7.48 0 0 Z " fill="#3A425C" transform="translate(618,348)"/>
<path d="M0 0 C3.57623788 1.9137306 5.69762236 4.09286708 7 8 C7.37935127 12.09699372 7.44928789 14.27793017 5.25 17.8125 C1.71887868 21.24553462 0.0440563 21.90056607 -4.9375 22.375 C-8.09516598 22.29267724 -9.04689792 21.97145344 -11.875 20.25 C-14.99497149 16.94650078 -15.84963004 15.1599968 -16.4375 10.625 C-15.85694294 5.8146701 -14.38607407 4.38607407 -11 1 C-7.51302098 -0.74348951 -3.80409937 -0.58082725 0 0 Z " fill="#E0E5EA" transform="translate(597,348)"/>
<path d="M0 0 C0.99 0.33 1.98 0.66 3 1 C2.50371094 1.4846875 2.00742187 1.969375 1.49609375 2.46875 C-2.51676874 6.42831071 -6.34711964 10.46603059 -10.0234375 14.73828125 C-12.91079593 18.04219534 -15.88466814 21.26619595 -18.87109375 24.48046875 C-21.07828116 26.86398794 -23.21082776 29.25683314 -25.2734375 31.76953125 C-25.94632812 32.58808594 -26.61921875 33.40664062 -27.3125 34.25 C-27.88613281 34.97703125 -28.45976562 35.7040625 -29.05078125 36.453125 C-31.72955943 38.578969 -33.676961 38.28121628 -37 38 C-37.495 36.515 -37.495 36.515 -38 35 C-39.485 35.495 -39.485 35.495 -41 36 C-41.495 34.515 -41.495 34.515 -42 33 C-41.34 33 -40.68 33 -40 33 C-40 32.34 -40 31.68 -40 31 C-39.34 31 -38.68 31 -38 31 C-37.60361328 30.11054688 -37.60361328 30.11054688 -37.19921875 29.203125 C-35.95629575 26.91970946 -34.69598354 25.52573277 -32.8125 23.75 C-29.45975538 20.51649525 -26.45244288 17.08795743 -23.48046875 13.50390625 C-22.99191406 13.00761719 -22.50335938 12.51132813 -22 12 C-21.34 12 -20.68 12 -20 12 C-20 11.34 -20 10.68 -20 10 C-19.01 9.67 -18.02 9.34 -17 9 C-15 11 -15 11 -15 15 C-14.67 14.34 -14.34 13.68 -14 13 C-13.01 13 -12.02 13 -11 13 C-11 12.34 -11 11.68 -11 11 C-10.01 11 -9.02 11 -8 11 C-7.8453125 10.0409375 -7.8453125 10.0409375 -7.6875 9.0625 C-7.3471875 8.0415625 -7.3471875 8.0415625 -7 7 C-6.01 6.67 -5.02 6.34 -4 6 C-4.495 4.02 -4.495 4.02 -5 2 C-4.34 1.67 -3.68 1.34 -3 1 C-2.01 1.33 -1.02 1.66 0 2 C0 1.34 0 0.68 0 0 Z " fill="#D88732" transform="translate(455,214)"/>
<path d="M0 0 C12.34414995 -0.493766 12.34414995 -0.493766 15.38671875 1.796875 C17 4 17 4 17.5625 7.5 C17 11 17 11 15.0625 13.4375 C10.94900079 15.53622409 7.52819552 15.35515259 3 15 C3 17.31 3 19.62 3 22 C2.01 22 1.02 22 0 22 C0 14.74 0 7.48 0 0 Z " fill="#0F1532" transform="translate(492,348)"/>
<path d="M0 0 C6.6 0 13.2 0 20 0 C20 27.72 20 55.44 20 84 C13.73 84 7.46 84 1 84 C1 80.7 1 77.4 1 74 C1.33 74 1.66 74 2 74 C2 76.64 2 79.28 2 82 C7.28 82 12.56 82 18 82 C18 55.6 18 29.2 18 2 C12.06 2 6.12 2 0 2 C0 1.34 0 0.68 0 0 Z " fill="#394660" transform="translate(658,243)"/>
<path d="M0 0 C1.32 0 2.64 0 4 0 C4.31453125 0.7734375 4.6290625 1.546875 4.953125 2.34375 C6.93998727 7.17924614 8.9186655 11.97461183 11.3125 16.625 C13 20 13 20 13 22 C12.01 22 11.02 22 10 22 C9.34 20.02 8.68 18.04 8 16 C6.04081032 16.05991406 4.08248471 16.14867138 2.125 16.25 C1.03445313 16.29640625 -0.05609375 16.3428125 -1.1796875 16.390625 C-4.1332065 16.68846128 -4.1332065 16.68846128 -5.3828125 19.046875 C-5.58648438 19.69140625 -5.79015625 20.3359375 -6 21 C-6.99 21 -7.98 21 -9 21 C-6.76686274 13.55620912 -3.59727921 6.88023305 0 0 Z " fill="#1D2540" transform="translate(769,348)"/>
<path d="M0 0 C9.18762089 -0.48355899 9.18762089 -0.48355899 12.625 1.5625 C14.52641491 4.93319007 14.47647608 7.18819135 14 11 C12.23984869 14.1850357 11.50109084 14.83296972 8 16 C5.36 16 2.72 16 0 16 C0 10.72 0 5.44 0 0 Z " fill="#E8EBED" transform="translate(622,351)"/>
<path d="M0 0 C4.5 1.125 4.5 1.125 6.796875 4.16015625 C7.28027344 4.78857422 7.76367188 5.41699219 8.26171875 6.06445312 C8.75285156 6.72380859 9.24398437 7.38316406 9.75 8.0625 C10.25660156 8.72572266 10.76320313 9.38894531 11.28515625 10.07226562 C12.53251886 11.7079581 13.76747818 13.35309584 15 15 C15.33 10.05 15.66 5.1 16 0 C16.99 0 17.98 0 19 0 C19 7.26 19 14.52 19 22 C14.36136907 20.84034227 13.74127494 19.87724622 10.9375 16.1875 C10.26589844 15.31480469 9.59429688 14.44210937 8.90234375 13.54296875 C8.27457031 12.70378906 7.64679687 11.86460937 7 11 C6.01 9.68 5.02 8.36 4 7 C3.67 11.62 3.34 16.24 3 21 C2.01 21 1.02 21 0 21 C0 14.07 0 7.14 0 0 Z " fill="#15213E" transform="translate(719,348)"/>
<path d="M0 0 C3 0 3 0 4.3503418 1.28515625 C4.79547119 1.87167969 5.24060059 2.45820313 5.69921875 3.0625 C6.18583984 3.69414062 6.67246094 4.32578125 7.17382812 4.9765625 C7.9230957 5.97816406 7.9230957 5.97816406 8.6875 7 C9.19861328 7.66773438 9.70972656 8.33546875 10.23632812 9.0234375 C11.4992856 10.67590522 12.75074235 12.3371511 14 14 C14.33 9.38 14.66 4.76 15 0 C15.99 0 16.98 0 18 0 C18 6.93 18 13.86 18 21 C13.15726303 19.78931576 12.32259263 18.36087914 9.3125 14.5 C8.52488281 13.4996875 7.73726562 12.499375 6.92578125 11.46875 C6.29027344 10.6540625 5.65476562 9.839375 5 9 C4.67 8.67 4.34 8.34 4 8 C3.67 12.62 3.34 17.24 3 22 C2.01 22 1.02 22 0 22 C0 14.74 0 7.48 0 0 Z " fill="#1F283F" transform="translate(539,348)"/>
<path d="M0 0 C0.66 0.33 1.32 0.66 2 1 C1.23816406 1.82242188 0.47632813 2.64484375 -0.30859375 3.4921875 C-7.75463556 11.53885327 -15.18509491 19.59726057 -22.375 27.875 C-25.42913703 31.37974742 -28.54907261 34.82088135 -31.6875 38.25 C-32.15140137 38.75772949 -32.61530273 39.26545898 -33.09326172 39.78857422 C-35.66685466 42.59200189 -38.28688498 45.33136227 -41 48 C-40.46037648 43.91968879 -38.32652822 41.86958113 -35.5625 38.9375 C-33.12788624 36.33875498 -30.97804974 33.96707461 -29 31 C-28.34 31 -27.68 31 -27 31 C-27 30.01 -27 29.02 -27 28 C-26.34 28 -25.68 28 -25 28 C-25.22042969 27.27296875 -25.44085938 26.5459375 -25.66796875 25.796875 C-26.0862655 22.27334005 -25.30736672 21.12879071 -23.3125 18.25 C-22.53326172 17.08210938 -22.53326172 17.08210938 -21.73828125 15.890625 C-19.76738726 13.74700098 -18.85056218 13.32702434 -16 13 C-14.68 13 -13.36 13 -12 13 C-10.36946391 11.82787157 -10.36946391 11.82787157 -8.984375 10.15625 C-8.45585937 9.56972656 -7.92734375 8.98320312 -7.3828125 8.37890625 C-6.84398437 7.75886719 -6.30515625 7.13882813 -5.75 6.5 C-5.19570313 5.87996094 -4.64140625 5.25992188 -4.0703125 4.62109375 C-2.70365465 3.08949443 -1.35050499 1.54586106 0 0 Z " fill="#E9E9E6" transform="translate(418,224)"/>
<path d="M0 0 C0.99 0.66 1.98 1.32 3 2 C1.06393789 4.00520718 -0.77131401 5.84061279 -3.0625 7.4375 C-5.404887 9.32652178 -6.57890474 11.37097376 -8 14 C-8.56842117 13.92894547 -9.13684235 13.85789093 -9.7224884 13.78468323 C-19.28943818 12.74439233 -28.84024976 12.87392301 -38.44921875 12.90234375 C-40.3167975 12.90421219 -42.18437675 12.90563408 -44.05195618 12.90663147 C-48.93282458 12.91042308 -53.81366254 12.92022417 -58.69451904 12.93133545 C-63.68891997 12.94162226 -68.68332588 12.94614457 -73.67773438 12.95117188 C-83.45183619 12.96184991 -93.22591555 12.97888532 -103 13 C-103 13.99 -103 14.98 -103 16 C-102.01 16 -101.02 16 -100 16 C-100.66 18.31 -101.32 20.62 -102 23 C-104.20319677 18.59360646 -105.10924981 16.02549129 -105 11 C-103.22593529 11.01451706 -103.22593529 11.01451706 -101.41603088 11.02932739 C-90.24907811 11.11415868 -79.0830449 11.14616643 -67.91577244 11.12697029 C-62.17487966 11.11878578 -56.43526258 11.12896067 -50.69458008 11.18164062 C-45.1502412 11.23183427 -39.6078193 11.23308572 -34.06336784 11.20095444 C-31.95232949 11.19721429 -29.84118376 11.21086386 -27.7303791 11.24249649 C-16.04049929 11.95008436 -16.04049929 11.95008436 -5.64743042 7.69378662 C-3.40916195 5.22978188 -1.62130276 2.89976335 0 0 Z " fill="#DDEFFF" transform="translate(402,231)"/>
<path d="M0 0 C3.57623788 1.9137306 5.69762236 4.09286708 7 8 C7.37935127 12.09699372 7.44928789 14.27793017 5.25 17.8125 C1.71887868 21.24553462 0.0440563 21.90056607 -4.9375 22.375 C-8.09516598 22.29267724 -9.04689792 21.97145344 -11.875 20.25 C-14.99497149 16.94650078 -15.84963004 15.1599968 -16.4375 10.625 C-15.85694294 5.8146701 -14.38607407 4.38607407 -11 1 C-7.51302098 -0.74348951 -3.80409937 -0.58082725 0 0 Z M-10.875 4 C-13.82360163 8.16273171 -13.7975483 9.97544571 -13 15 C-10.277607 18.2998703 -8.67804009 18.91673192 -4.4375 19.4375 C-0.04796244 18.91513931 -0.04796244 18.91513931 3 16 C3.90481741 13.28554777 4.25036984 10.85421621 4 8 C2.23535939 5.14006522 1.00434303 3.50217151 -2 2 C-5.97357645 1.47018981 -7.54170381 1.68118526 -10.875 4 Z " fill="#21273C" transform="translate(597,348)"/>
<path d="M0 0 C4.95 0 9.9 0 15 0 C15 0.66 15 1.32 15 2 C11.04 2 7.08 2 3 2 C3 4.31 3 6.62 3 9 C6.63 9 10.26 9 14 9 C14 9.99 14 10.98 14 12 C10.37 12 6.74 12 3 12 C3 14.31 3 16.62 3 19 C7.29 19 11.58 19 16 19 C16 19.99 16 20.98 16 22 C10.72 22 5.44 22 0 22 C0 14.74 0 7.48 0 0 Z " fill="#363C54" transform="translate(644,348)"/>
<path d="M0 0 C1.98 0 3.96 0 6 0 C5.85866501 1.77119803 5.71176792 3.54195287 5.5625 5.3125 C5.48128906 6.29863281 5.40007812 7.28476563 5.31640625 8.30078125 C5 11 5 11 4 14 C3.01 14.33 2.02 14.66 1 15 C2 9 2 9 3 3 C-1.28666733 7.16940287 -5.39055712 11.43076295 -9.2421875 16.0078125 C-11 18 -11 18 -12.8203125 19.6171875 C-19.87783701 26.24698325 -21.00826343 35.89491855 -23 45 C-23.33 45 -23.66 45 -24 45 C-23.29347796 36.09410382 -22.44917053 26.9096365 -18 19 C-15.3125 18.0625 -15.3125 18.0625 -13 18 C-13.33 17.01 -13.66 16.02 -14 15 C-12.35 14.67 -10.7 14.34 -9 14 C-9 13.34 -9 12.68 -9 12 C-8.34 12 -7.68 12 -7 12 C-6.67 10.35 -6.34 8.7 -6 7 C-4.68 6.67 -3.36 6.34 -2 6 C-2 5.01 -2 4.02 -2 3 C-1.34 3 -0.68 3 0 3 C0 2.01 0 1.02 0 0 Z " fill="#F7E6C8" transform="translate(448,233)"/>
<path d="M0 0 C0.66 0.33 1.32 0.66 2 1 C0.02 3.31 -1.96 5.62 -4 8 C0.29 8.66 4.58 9.32 9 10 C9 10.33 9 10.66 9 11 C-4.86 11 -18.72 11 -33 11 C-33 10.67 -33 10.34 -33 10 C-31.31197266 9.67128906 -31.31197266 9.67128906 -29.58984375 9.3359375 C-20.19076838 7.42134914 -11.62565401 4.94914007 -2.84375 1.07421875 C-1.9053125 0.71972656 -0.966875 0.36523438 0 0 Z " fill="#AD683A" transform="translate(377,337)"/>
<path d="M0 0 C6.46326465 -0.45356243 9.60931587 0.40621058 15 4 C15 4.66 15 5.32 15 6 C15.99 6.33 16.98 6.66 18 7 C19.6875 8.5625 19.6875 8.5625 21 10 C20.67 10.99 20.34 11.98 20 13 C19.01 13 18.02 13 17 13 C14.82967524 14.43990623 14.82967524 14.43990623 13 16 C11.01492207 13.90114686 9.03689607 11.79636118 7.0625 9.6875 C6.49853516 9.09259766 5.93457031 8.49769531 5.35351562 7.88476562 C4.81533203 7.30791016 4.27714844 6.73105469 3.72265625 6.13671875 C3.22515869 5.60780029 2.72766113 5.07888184 2.21508789 4.53393555 C1 3 1 3 0 0 Z " fill="#DA8632" transform="translate(326,266)"/>
<path d="M0 0 C0.99 0 1.98 0 3 0 C3.04898438 1.13179688 3.09796875 2.26359375 3.1484375 3.4296875 C3.22346514 4.91148339 3.29901297 6.393253 3.375 7.875 C3.4059375 8.62136719 3.436875 9.36773437 3.46875 10.13671875 C3.55643831 14.53473188 3.55643831 14.53473188 6 18 C9.58343976 18.16677282 9.58343976 18.16677282 13 18 C14.585869 14.828262 14.37866445 11.36486178 14.5625 7.875 C14.60568359 7.12089844 14.64886719 6.36679687 14.69335938 5.58984375 C14.7994832 3.72678112 14.90025001 1.86341476 15 0 C15.99 0 16.98 0 18 0 C18.08132187 2.56314499 18.14064175 5.12368418 18.1875 7.6875 C18.21263672 8.40873047 18.23777344 9.12996094 18.26367188 9.87304688 C18.32630162 14.4450183 17.93333041 17.42393519 15 21 C11.32757535 22.22414155 8.8577463 22.46559007 5 22 C1.5384382 18.79818021 -0.28334134 16.68726882 -0.48828125 11.9140625 C-0.45547135 10.48355102 -0.39644891 9.05342296 -0.3125 7.625 C-0.28994141 6.88894531 -0.26738281 6.15289062 -0.24414062 5.39453125 C-0.18572927 3.59546158 -0.09606337 1.79745247 0 0 Z " fill="#20273E" transform="translate(514,348)"/>
<path d="M0 0 C1.16445606 3.49336818 0.77002998 4.62826149 -0.21484375 8.10546875 C-0.48876953 9.08837891 -0.76269531 10.07128906 -1.04492188 11.08398438 C-1.33947266 12.10814453 -1.63402344 13.13230469 -1.9375 14.1875 C-2.22818359 15.22326172 -2.51886719 16.25902344 -2.81835938 17.32617188 C-3.53803977 19.88634639 -4.2655212 22.44403911 -5 25 C-5.33 25 -5.66 25 -6 25 C-5.67 20.71 -5.34 16.42 -5 12 C-6.75224914 13.41388379 -8.50170655 14.83122783 -10.25 16.25 C-11.22453125 17.03890625 -12.1990625 17.8278125 -13.203125 18.640625 C-19.12558589 23.53651867 -19.12558589 23.53651867 -21.0625 30.75 C-21.76604473 35.92200451 -22.97043051 40.20283575 -25 45 C-25.66 45 -26.32 45 -27 45 C-26.40704808 42.10145838 -25.8011439 39.2066678 -25.1875 36.3125 C-25.02185547 35.49587891 -24.85621094 34.67925781 -24.68554688 33.83789062 C-23.0694352 26.30620035 -20.03605195 21.77599899 -14.75 16.1875 C-13.76620213 15.13218578 -12.78313006 14.07619448 -11.80078125 13.01953125 C-11.08462646 12.25116943 -11.08462646 12.25116943 -10.35400391 11.46728516 C-7.95745736 8.87023417 -5.64821426 6.19866396 -3.33984375 3.5234375 C-2.27112096 2.30827165 -1.1442894 1.1442894 0 0 Z " fill="#E3A850" transform="translate(451,235)"/>
<path d="M0 0 C4.95 0 9.9 0 15 0 C15 0.66 15 1.32 15 2 C11.04 2 7.08 2 3 2 C3 4.31 3 6.62 3 9 C6.63 9 10.26 9 14 9 C14 9.99 14 10.98 14 12 C10.37 12 6.74 12 3 12 C3 14.31 3 16.62 3 19 C6.96 19 10.92 19 15 19 C15 19.66 15 20.32 15 21 C10.05 21 5.1 21 0 21 C0 14.07 0 7.14 0 0 Z " fill="#080D2B" transform="translate(698,348)"/>
<path d="M0 0 C1.39464663 4.49297249 0.23434664 8.16988773 -0.9140625 12.60546875 C-1.12557953 13.44410965 -1.33709656 14.28275055 -1.55502319 15.14680481 C-2.00601014 16.92241773 -2.46191715 18.69678718 -2.92236328 20.4699707 C-3.61697322 23.15645551 -4.28793283 25.84807964 -4.95703125 28.54101562 C-10.28178254 49.5420676 -10.28178254 49.5420676 -17.875 55.875 C-18.49117188 56.40867187 -19.10734375 56.94234375 -19.7421875 57.4921875 C-26.6801294 62.12548434 -32.25926926 62.39501529 -40.4375 62.1875 C-41.45521484 62.17396484 -42.47292969 62.16042969 -43.52148438 62.14648438 C-46.01488214 62.1113661 -48.50715512 62.06218559 -51 62 C-51 61.67 -51 61.34 -51 61 C-50.42556152 60.97494385 -49.85112305 60.9498877 -49.25927734 60.92407227 C-46.63100279 60.80730125 -44.00301605 60.68494581 -41.375 60.5625 C-40.47136719 60.52318359 -39.56773437 60.48386719 -38.63671875 60.44335938 C-34.01783854 60.22421542 -29.54846364 59.8991149 -25 59 C-25 58.34 -25 57.68 -25 57 C-23.576875 56.6596875 -23.576875 56.6596875 -22.125 56.3125 C-18.80353159 55.33026976 -18.80353159 55.33026976 -17.8125 52.4375 C-17.544375 51.633125 -17.27625 50.82875 -17 50 C-16.01 49.67 -15.02 49.34 -14 49 C-12.20823083 44.78407254 -11.37165482 40.32956967 -10.46484375 35.85546875 C-10 34 -10 34 -9 33 C-8.835 31.845 -8.67 30.69 -8.5 29.5 C-8 26 -8 26 -7 25 C-6.63239269 22.67182036 -6.29758419 20.3381615 -6 18 C-5.34 18 -4.68 18 -4 18 C-3.896875 17.071875 -3.79375 16.14375 -3.6875 15.1875 C-2.96237678 10.00500168 -1.44330995 5.01981384 0 0 Z " fill="#D19752" transform="translate(437,286)"/>
<path d="M0 0 C0.495 0.99 0.495 0.99 1 2 C0.109375 3.91015625 0.109375 3.91015625 -1.25 6.0625 C-1.68828125 6.77535156 -2.1265625 7.48820312 -2.578125 8.22265625 C-4 10 -4 10 -7 11 C-7.6837045 12.32467746 -8.34964186 13.65863633 -9 15 C-9.99 15.66 -10.98 16.32 -12 17 C-13.00313496 18.78495412 -13.00313496 18.78495412 -13.8125 20.8125 C-15.84230769 25.11506533 -18.10653535 27.29150285 -22 30 C-22.66 30 -23.32 30 -24 30 C-24.66 31.32 -25.32 32.64 -26 34 C-26.66 34 -27.32 34 -28 34 C-28.226875 34.556875 -28.45375 35.11375 -28.6875 35.6875 C-30.36167263 38.63723273 -32.57832311 40.6373884 -35 43 C-36.02813611 44.31175986 -37.04084432 45.6369893 -38 47 C-38.99 46.67 -39.98 46.34 -41 46 C-39.82244141 44.7315625 -39.82244141 44.7315625 -38.62109375 43.4375 C-33.62463882 38.04598025 -28.64823872 32.6506526 -23.83984375 27.08984375 C-21.433296 24.35629163 -18.96684521 21.67897567 -16.5 19 C-10.81327031 12.81893998 -5.1735822 6.62218522 0 0 Z " fill="#F5E6D4" transform="translate(415,261)"/>
<path d="M0 0 C2.07866137 2.49439364 3.54494263 5.02578914 4.9375 7.9375 C7.46455874 13.11652914 10.86488371 17.01256644 15 21 C14.34 21.33 13.68 21.66 13 22 C13 21.34 13 20.68 13 20 C11.35 20.33 9.7 20.66 8 21 C8.11306697 22.95894361 8.11306697 22.95894361 9 25 C11.49034386 26.29660434 11.49034386 26.29660434 14 27 C14 27.66 14 28.32 14 29 C14.66 29 15.32 29 16 29 C16 29.99 16 30.98 16 32 C17.65 32 19.3 32 21 32 C21.33 32.66 21.66 33.32 22 34 C24.01669827 35.13350534 24.01669827 35.13350534 26 36 C19.02177082 35.75077753 15.00973406 33.88017197 10 29 C3.66329916 22.04340452 0 9.21681134 0 0 Z M11 27 C11.66 27.66 12.32 28.32 13 29 C13 28.34 13 27.68 13 27 C12.34 27 11.68 27 11 27 Z " fill="#182C55" transform="translate(299,311)"/>
<path d="M0 0 C5.94 0 11.88 0 18 0 C18 0.99 18 1.98 18 3 C15.69 3 13.38 3 11 3 C11 9.27 11 15.54 11 22 C9.68 22 8.36 22 7 22 C7 15.73 7 9.46 7 3 C4.69 3 2.38 3 0 3 C0 2.01 0 1.02 0 0 Z " fill="#3C415D" transform="translate(561,348)"/>
<path d="M0 0 C1.1381143 3.41135442 0.84712111 5.76078812 0.07421875 9.24609375 C-0.14556641 10.24833984 -0.36535156 11.25058594 -0.59179688 12.28320312 C-0.82962891 13.32412109 -1.06746094 14.36503906 -1.3125 15.4375 C-1.53873047 16.47455078 -1.76496094 17.51160156 -1.99804688 18.58007812 C-3.71825279 26.29869659 -3.71825279 26.29869659 -5.04370117 29.59790039 C-6.27312342 32.68605089 -6.61311686 35.71149334 -7 39 C-7.66 39 -8.32 39 -9 39 C-8.979375 40.134375 -8.95875 41.26875 -8.9375 42.4375 C-9 46 -9 46 -10 47 C-9.9690625 48.02222656 -9.938125 49.04445313 -9.90625 50.09765625 C-10.00953294 54.3968086 -10.97438243 57.43275389 -12.5 61.4375 C-12.85771484 62.39172852 -12.85771484 62.39172852 -13.22265625 63.36523438 C-13.80490924 64.91402732 -14.40101069 66.45760253 -15 68 C-15.66 68 -16.32 68 -17 68 C-16.41305542 62.45981578 -15.42572017 57.2926757 -13.92578125 51.93359375 C-13.7211879 51.18487 -13.51659454 50.43614624 -13.30580139 49.66473389 C-12.64621307 47.25429645 -11.97932484 44.84594436 -11.3125 42.4375 C-10.6297029 39.94771843 -9.94893709 37.45738762 -9.26837158 34.96699524 C-8.81709876 33.3158632 -8.36523793 31.66489175 -7.91278076 30.01408386 C-6.01546136 23.08499204 -4.1773781 16.14195355 -2.375 9.1875 C-2.12790283 8.23480225 -1.88080566 7.28210449 -1.6262207 6.30053711 C-1.08267096 4.20073964 -0.54105611 2.10044139 0 0 Z " fill="#F8E4C1" transform="translate(448,249)"/>
<path d="M0 0 C1.32 0 2.64 0 4 0 C5.00419637 2.4566947 6.00350501 4.91518353 7 7.375 C7.42925781 8.42300781 7.42925781 8.42300781 7.8671875 9.4921875 C10 14.7734375 10 14.7734375 10 17 C10.66 17 11.32 17 12 17 C12.17015625 16.443125 12.3403125 15.88625 12.515625 15.3125 C14.23315937 9.90409391 16.35342255 5.01937104 19 0 C19.99 0.33 20.98 0.66 22 1 C19.03 7.6 16.06 14.2 13 21 C11.68 21 10.36 21 9 21 C7.86722732 18.81623234 6.74377211 16.62842872 5.625 14.4375 C5.14933594 13.52387695 5.14933594 13.52387695 4.6640625 12.59179688 C2.56688626 8.46298114 1.14396064 4.48917887 0 0 Z " fill="#182139" transform="translate(672,348)"/>
<path d="M0 0 C37.29 0 74.58 0 113 0 C111 4 111 4 109 5 C109 3.68 109 2.36 109 1 C73.03 1 37.06 1 0 1 C0 0.67 0 0.34 0 0 Z " fill="#365A8F" transform="translate(292,227)"/>
<path d="M0 0 C0.495 0.99 0.495 0.99 1 2 C-0.5496593 4.91093507 -1.60334887 6.8245936 -4 9 C-7.49088984 9.93823042 -10.85125879 9.67497863 -14.4375 9.46875 C-16.00794067 9.42276672 -16.00794067 9.42276672 -17.61010742 9.37585449 C-19.88145883 9.30876641 -22.15243014 9.22768277 -24.42285156 9.13427734 C-29.29558725 8.95136685 -34.16718909 8.89346766 -39.04272461 8.83105469 C-45.36229491 8.74756318 -51.68103352 8.61983276 -58 8.5 C-60.63671509 8.45162289 -63.27343383 8.40344476 -65.91015625 8.35546875 C-72.27348133 8.23926322 -78.63675752 8.12063938 -85 8 C-85 7.67 -85 7.34 -85 7 C-83.55086967 6.99120064 -83.55086967 6.99120064 -82.07246399 6.98222351 C-72.96456518 6.92499134 -63.85690503 6.85222715 -54.74924946 6.76428509 C-50.06698136 6.71957227 -45.38480046 6.68031815 -40.70239258 6.65356445 C-36.18294164 6.62754056 -31.66382607 6.58714465 -27.14458275 6.53681374 C-25.42107505 6.52013883 -23.69750933 6.50862843 -21.97393227 6.50238609 C-19.55819226 6.49275168 -17.14331145 6.46470127 -14.7277832 6.43237305 C-14.01640198 6.43380814 -13.30502075 6.43524323 -12.57208252 6.4367218 C-8.22028603 6.35444597 -5.45438905 5.67782269 -2 3 C-1.34 2.01 -0.68 1.02 0 0 Z " fill="#96857F" transform="translate(412,325)"/>
<path d="M0 0 C-0.33 0.99 -0.66 1.98 -1 3 C-8.89417587 6.65265651 -16.63273007 6.38533723 -25.1875 6.25 C-26.63402599 6.23802609 -28.08055985 6.22697226 -29.52709961 6.21679688 C-44.02427591 6.08731766 -58.51536766 5.59619286 -73 5 C-73 4.67 -73 4.34 -73 4 C-71.82062111 3.99120064 -71.82062111 3.99120064 -70.61741638 3.98222351 C-63.18773298 3.92418723 -55.75838076 3.85204858 -48.3289938 3.76428509 C-44.50995962 3.71966237 -40.69103012 3.68038888 -36.87182617 3.65356445 C-33.18226177 3.62744999 -29.49310197 3.58699129 -25.80378914 3.53681374 C-24.40012732 3.52019976 -22.99639561 3.50865153 -21.59264946 3.50238609 C-14.09044539 3.46552933 -6.71439898 0 0 0 Z " fill="#F5DAC2" transform="translate(417,344)"/>
<path d="M0 0 C0.33 0 0.66 0 1 0 C1.05406122 1.93719378 1.09282025 3.87481921 1.125 5.8125 C1.14820313 6.89144531 1.17140625 7.97039062 1.1953125 9.08203125 C1 12 1 12 -1 15 C-0.01 15 0.98 15 2 15 C0.8927874 18.32163779 0.18821405 18.83680492 -2.5 20.875 C-5.04301732 22.95517777 -5.89285517 23.67142251 -6.9375 26.875 C-6.958125 27.57625 -6.97875 28.2775 -7 29 C-6.34 29.33 -5.68 29.66 -5 30 C-8.56045177 31.18681726 -11.43808337 31.09689832 -15.1875 31.0625 C-16.45980469 31.05347656 -17.73210937 31.04445313 -19.04296875 31.03515625 C-20.50669922 31.01775391 -20.50669922 31.01775391 -22 31 C-19.65881361 29.43920907 -17.7207175 28.41672301 -15.1875 27.3125 C-9.13656618 24.28703309 -5.48714992 20.0025468 -3.25 13.625 C-1.94467585 9.1374655 -0.92048871 4.58078499 0 0 Z " fill="#E2933B" transform="translate(414,316)"/>
<path d="M0 0 C1.32 0 2.64 0 4 0 C3.42655063 2.86724686 3.1385485 3.8614515 1 6 C-2.10417418 6.18848472 -5.11853901 6.25160454 -8.22314453 6.22705078 C-9.1792865 6.22734283 -10.13542847 6.22763489 -11.12054443 6.22793579 C-14.29139172 6.22653876 -17.46200609 6.21095999 -20.6328125 6.1953125 C-22.82713696 6.1915837 -25.02146308 6.1887361 -27.21578979 6.18673706 C-32.99937514 6.17909015 -38.78286049 6.15943259 -44.56640625 6.1373291 C-50.46482999 6.11689343 -56.36326984 6.10774023 -62.26171875 6.09765625 C-73.84118984 6.07618769 -85.42058661 6.04203902 -97 6 C-97 5.67 -97 5.34 -97 5 C-64.99 5 -32.98 5 0 5 C0 3.35 0 1.7 0 0 Z " fill="#32578E" transform="translate(393,235)"/>
<path d="M0 0 C1.258125 -0.04125 2.51625 -0.0825 3.8125 -0.125 C4.52019531 -0.14820313 5.22789062 -0.17140625 5.95703125 -0.1953125 C8 0 8 0 11 2 C11.3125 5 11.3125 5 11 8 C9 10 9 10 6.8359375 10.1953125 C4.55729167 10.13020833 2.27864583 10.06510417 0 10 C0 6.7 0 3.4 0 0 Z " fill="#DAE0E7" transform="translate(495,350)"/>
<path d="M0 0 C5.97981045 2.54953159 10.09472409 6.88655259 14.16015625 11.83203125 C17.52144022 15.79277987 21.29154214 19.36722495 25 23 C21.47967572 23 20.5614657 22.29648649 18 20 C18 19.34 18 18.68 18 18 C17.34 18 16.68 18 16 18 C15.505 17.01 15.505 17.01 15 16 C12.98330173 14.86649466 12.98330173 14.86649466 11 14 C11 13.01 11 12.02 11 11 C10.01 10.67 9.02 10.34 8 10 C7.401875 9.21625 6.80375 8.4325 6.1875 7.625 C2.68347947 3.42017537 -1.0610579 1.99786709 -6.375 1.3125 C-7.57125 1.209375 -8.7675 1.10625 -10 1 C-10 1.66 -10 2.32 -10 3 C-11.11375 3.2475 -12.2275 3.495 -13.375 3.75 C-17.04615198 4.61005339 -17.04615198 4.61005339 -18.4375 7.125 C-18.623125 7.74375 -18.80875 8.3625 -19 9 C-19.66 7.68 -20.32 6.36 -21 5 C-14.26825914 0.24018323 -8.21653101 -1.52483019 0 0 Z " fill="#CB8A47" transform="translate(336,265)"/>
<path d="M0 0 C2.475 0.99 2.475 0.99 5 2 C4.25 9.625 4.25 9.625 2 13 C-0.625 13.1875 -0.625 13.1875 -3 13 C-3.33 12.01 -3.66 11.02 -4 10 C-4.99 10.33 -5.98 10.66 -7 11 C-7.33 10.01 -7.66 9.02 -8 8 C-7.34 8 -6.68 8 -6 8 C-6 7.34 -6 6.68 -6 6 C-5.34 6 -4.68 6 -4 6 C-3.71125 5.38125 -3.4225 4.7625 -3.125 4.125 C-2 2 -2 2 0 0 Z " fill="#D78431" transform="translate(421,239)"/>
<path d="M0 0 C5.61 0 11.22 0 17 0 C17 0.66 17 1.32 17 2 C14.69 2 12.38 2 10 2 C10 8.6 10 15.2 10 22 C9.01 22 8.02 22 7 22 C7 15.4 7 8.8 7 2 C4.69 2 2.38 2 0 2 C0 1.34 0 0.68 0 0 Z " fill="#141933" transform="translate(742,348)"/>
<path d="M0 0 C0.99 0 1.98 0 3 0 C3 7.26 3 14.52 3 22 C-1.59195094 20.85201226 -1.87820524 20.26471427 -4.25 16.4375 C-5.03117188 15.19806641 -5.03117188 15.19806641 -5.828125 13.93359375 C-6.21484375 13.29550781 -6.6015625 12.65742188 -7 12 C-4.13275314 12.57344937 -3.1385485 12.8614515 -1 15 C-0.67 10.05 -0.34 5.1 0 0 Z " fill="#29344D" transform="translate(735,348)"/>
<path d="M0 0 C0.99 0 1.98 0 3 0 C7 4.34285714 7 4.34285714 7 7 C6.01 7.33 5.02 7.66 4 8 C3.67 12.62 3.34 17.24 3 22 C2.01 22 1.02 22 0 22 C0 14.74 0 7.48 0 0 Z " fill="#27304A" transform="translate(539,348)"/>
<path d="M0 0 C3.29624584 2.71940282 4.86049764 4.14748556 5.5625 8.4375 C4.91022942 12.56854698 3.61482434 14.76992287 1 18 C-1.64458379 19.32229189 -3.67761301 19.09677194 -6.625 19.0625 C-7.62789062 19.05347656 -8.63078125 19.04445313 -9.6640625 19.03515625 C-10.43492187 19.02355469 -11.20578125 19.01195312 -12 19 C-12 18.34 -12 17.68 -12 17 C-11.22914063 16.89042969 -10.45828125 16.78085937 -9.6640625 16.66796875 C-8.66117188 16.50941406 -7.65828125 16.35085938 -6.625 16.1875 C-5.62726562 16.03667969 -4.62953125 15.88585937 -3.6015625 15.73046875 C-0.6712636 15.21227702 -0.6712636 15.21227702 1 12 C1.23183367 7.82699392 0.98419339 4.05979772 0 0 Z " fill="#161E3C" transform="translate(634,350)"/>
<path d="M0 0 C0.99 0.33 1.98 0.66 3 1 C2.14277344 1.9178125 1.28554688 2.835625 0.40234375 3.78125 C-7.27746912 12.01796158 -14.83162845 20.31106479 -22 29 C-22.33 28.01 -22.66 27.02 -23 26 C-20.42993683 22.24375383 -17.20815504 19.20815504 -14 16 C-13.443125 15.236875 -12.88625 14.47375 -12.3125 13.6875 C-11.6628125 12.8521875 -11.6628125 12.8521875 -11 12 C-10.34 12 -9.68 12 -9 12 C-9 11.01 -9 10.02 -9 9 C-8.34 9 -7.68 9 -7 9 C-7 8.34 -7 7.68 -7 7 C-5.01739574 5.31267723 -3.0167658 3.64633943 -1 2 C-0.67 1.34 -0.34 0.68 0 0 Z " fill="#FAEAD1" transform="translate(400,243)"/>
<path d="M0 0 C0.99 0.33 1.98 0.66 3 1 C2.25556641 1.72703125 2.25556641 1.72703125 1.49609375 2.46875 C-2.6517894 6.56153793 -6.59172941 10.75044566 -10.390625 15.16796875 C-12.49239542 17.56051809 -14.71440942 19.78366974 -17 22 C-16.25 15.25 -16.25 15.25 -14 13 C-13.01 13 -12.02 13 -11 13 C-11 12.34 -11 11.68 -11 11 C-10.01 11 -9.02 11 -8 11 C-7.896875 10.360625 -7.79375 9.72125 -7.6875 9.0625 C-7.3471875 8.0415625 -7.3471875 8.0415625 -7 7 C-6.01 6.67 -5.02 6.34 -4 6 C-4.33 4.68 -4.66 3.36 -5 2 C-4.34 1.67 -3.68 1.34 -3 1 C-2.01 1.33 -1.02 1.66 0 2 C0 1.34 0 0.68 0 0 Z " fill="#CE934F" transform="translate(455,214)"/>
<path d="M0 0 C1.65322266 0.01740234 1.65322266 0.01740234 3.33984375 0.03515625 C4.99693359 0.04869141 4.99693359 0.04869141 6.6875 0.0625 C7.54214844 0.07410156 8.39679687 0.08570313 9.27734375 0.09765625 C9.27734375 0.75765625 9.27734375 1.41765625 9.27734375 2.09765625 C5.64734375 2.09765625 2.01734375 2.09765625 -1.72265625 2.09765625 C-1.72265625 4.40765625 -1.72265625 6.71765625 -1.72265625 9.09765625 C2.56734375 9.09765625 6.85734375 9.09765625 11.27734375 9.09765625 C11.27734375 9.75765625 11.27734375 10.41765625 11.27734375 11.09765625 C6.32734375 11.09765625 1.37734375 11.09765625 -3.72265625 11.09765625 C-3.8203125 3.3828125 -3.8203125 3.3828125 -3.72265625 1.09765625 C-2.72265625 0.09765625 -2.72265625 0.09765625 0 0 Z " fill="#141B36" transform="translate(648.72265625,357.90234375)"/>
<path d="M0 0 C0.66 0 1.32 0 2 0 C1.01 2.97 0.02 5.94 -1 9 C0.44375 8.95875 1.8875 8.9175 3.375 8.875 C5.8359375 8.8046875 5.8359375 8.8046875 8 9 C8.66 9.66 9.32 10.32 10 11 C8.73542969 11.03867187 8.73542969 11.03867187 7.4453125 11.078125 C6.34960938 11.13484375 5.25390625 11.1915625 4.125 11.25 C3.03445313 11.29640625 1.94390625 11.3428125 0.8203125 11.390625 C-2.1332065 11.68846128 -2.1332065 11.68846128 -3.3828125 14.046875 C-3.58648438 14.69140625 -3.79015625 15.3359375 -4 16 C-4.99 16 -5.98 16 -7 16 C-5.26017005 10.18738629 -3.1889511 5.16830006 0 0 Z " fill="#101738" transform="translate(767,353)"/>
<path d="M0 0 C-3.32833307 2.21888872 -6.49763639 3.08746683 -10.3125 4.0625 C-10.96412109 4.23587891 -11.61574219 4.40925781 -12.28710938 4.58789062 C-19.0153617 6.34572231 -25.0857017 7.11921204 -32 7 C-32 6.34 -32 5.68 -32 5 C-31.01 4.89042969 -30.02 4.78085937 -29 4.66796875 C-20.6273805 3.81368809 -20.6273805 3.81368809 -12.625 1.375 C-8.24017469 -0.2882096 -4.62366205 -0.28897888 0 0 Z " fill="#434865" transform="translate(368,341)"/>
<path d="M0 0 C1.64301698 4.06988861 0.30666536 7.68522638 -0.80078125 11.72265625 C-0.99721725 12.46454697 -1.19365326 13.20643768 -1.39604187 13.97080994 C-1.81274582 15.53621133 -2.23414712 17.10036883 -2.65991211 18.66333008 C-3.31032321 21.05449727 -3.94436552 23.44956094 -4.57617188 25.84570312 C-4.98341224 27.36744548 -5.39158417 28.88893889 -5.80078125 30.41015625 C-5.99045975 31.12583267 -6.18013824 31.84150909 -6.37556458 32.57887268 C-7.26530962 35.81992089 -8.11693371 38.17540057 -10 41 C-10.04241723 38.66705225 -10.04092937 36.33297433 -10 34 C-9.505 33.505 -9.505 33.505 -9 33 C-8.835 31.845 -8.67 30.69 -8.5 29.5 C-8 26 -8 26 -7 25 C-6.63239269 22.67182036 -6.29758419 20.3381615 -6 18 C-5.34 18 -4.68 18 -4 18 C-3.8453125 16.6078125 -3.8453125 16.6078125 -3.6875 15.1875 C-2.96237678 10.00500168 -1.44330995 5.01981384 0 0 Z " fill="#DA9E4C" transform="translate(437,286)"/>
<path d="M0 0 C0.33 0.66 0.66 1.32 1 2 C0.67 2.99 0.34 3.98 0 5 C-0.99 5 -1.98 5 -3 5 C-3.2678833 5.59006836 -3.5357666 6.18013672 -3.81176758 6.78808594 C-5.01173483 9.02184458 -6.26612013 10.56273425 -8.01171875 12.390625 C-8.60194824 13.01445068 -9.19217773 13.63827637 -9.80029297 14.28100586 C-10.42307129 14.93077393 -11.04584961 15.58054199 -11.6875 16.25 C-12.95535016 17.5889703 -14.22228651 18.92880651 -15.48828125 20.26953125 C-16.09494629 20.91100098 -16.70161133 21.5524707 -17.32666016 22.21337891 C-20.30826098 25.39682723 -23.17580501 28.67679311 -26 32 C-26.66 31.67 -27.32 31.34 -28 31 C-27.14277344 30.0821875 -26.28554688 29.164375 -25.40234375 28.21875 C-17.40681202 19.65288601 -17.40681202 19.65288601 -9.6328125 10.88671875 C-6.46188533 7.22270481 -3.2238591 3.61742112 0 0 Z " fill="#DAA455" transform="translate(420,224)"/>
<path d="M0 0 C0.66 0 1.32 0 2 0 C2 3.63 2 7.26 2 11 C4.64 11 7.28 11 10 11 C10.33 11.99 10.66 12.98 11 14 C8.03 14 5.06 14 2 14 C2 16.31 2 18.62 2 21 C1.01 20.67 0.02 20.34 -1 20 C-0.67 19.67 -0.34 19.34 0 19 C0.08651611 17.58429877 0.10704904 16.164405 0.09765625 14.74609375 C0.09443359 13.89208984 0.09121094 13.03808594 0.08789062 12.15820312 C0.07951172 11.26037109 0.07113281 10.36253906 0.0625 9.4375 C0.05573242 8.08495117 0.05573242 8.08495117 0.04882812 6.70507812 C0.03700225 4.46998686 0.0205222 2.23502563 0 0 Z " fill="#39435C" transform="translate(493,349)"/>
<path d="M0 0 C2.72957339 2.35735884 3.88893396 4.58133526 5 8 C5 8.99 5 9.98 5 11 C2.03 11 -0.94 11 -4 11 C-3.52269162 9.5410574 -3.04308958 8.08286504 -2.5625 6.625 C-2.29566406 5.81289063 -2.02882813 5.00078125 -1.75390625 4.1640625 C-1 2 -1 2 0 0 Z " fill="#D2D9E4" transform="translate(770,351)"/>
<path d="M0 0 C-0.33 0.99 -0.66 1.98 -1 3 C-9.32784113 6.99178083 -18.05225185 6.34060778 -27.0625 6.1875 C-28.61131511 6.17242519 -30.16014441 6.15874173 -31.70898438 6.14648438 C-35.47301178 6.11370138 -39.23634638 6.06207498 -43 6 C-43 5.67 -43 5.34 -43 5 C-42.14881592 4.9906543 -41.29763184 4.98130859 -40.4206543 4.97167969 C-37.20891746 4.92720244 -33.99807309 4.8653856 -30.78686523 4.79248047 C-29.40710265 4.7645611 -28.02718876 4.74320489 -26.6472168 4.72900391 C-18.50283463 4.64025292 -11.58929145 4.05814948 -4.05004883 0.84863281 C-2 0 -2 0 0 0 Z " fill="#F6EBDB" transform="translate(417,344)"/>
<path d="M0 0 C2.50641725 1.25320863 3.31443855 1.69734958 4.21875 4.390625 C4.3115625 5.00421875 4.404375 5.6178125 4.5 6.25 C3.51 6.25 2.52 6.25 1.5 6.25 C1.17 5.26 0.84 4.27 0.5 3.25 C-5.62012243 0.79407104 -13.21435964 0.23859508 -19.5 2.25 C-14.36588998 -3.37307288 -6.59074196 -3.02817874 0 0 Z " fill="#DBA554" transform="translate(480.5,178.75)"/>
<path d="M0 0 C0.66 0.33 1.32 0.66 2 1 C-4.28543527 4.43796251 -9.93463111 6.74646681 -17 8 C-17 8.66 -17 9.32 -17 10 C-20.42232972 11.14077657 -23.08673217 11.09815117 -26.6875 11.0625 C-28.45673828 11.04896484 -28.45673828 11.04896484 -30.26171875 11.03515625 C-31.16535156 11.02355469 -32.06898438 11.01195312 -33 11 C-33 10.67 -33 10.34 -33 10 C-31.31197266 9.67128906 -31.31197266 9.67128906 -29.58984375 9.3359375 C-20.19076838 7.42134914 -11.62565401 4.94914007 -2.84375 1.07421875 C-1.9053125 0.71972656 -0.966875 0.36523438 0 0 Z " fill="#987061" transform="translate(377,337)"/>
<path d="M0 0 C0.86625 0.2784375 0.86625 0.2784375 1.75 0.5625 C4.20692525 1.04023546 5.64397534 0.75729364 8 0 C8.95465783 2.16967689 9.14401212 3.56328793 8.3984375 5.82421875 C7.64129615 7.5684743 6.82390802 9.28627131 6 11 C5.34 11 4.68 11 4 11 C3.32880451 9.5437455 2.66318193 8.08492133 2 6.625 C1.62875 5.81289063 1.2575 5.00078125 0.875 4.1640625 C0 2 0 2 0 0 Z " fill="#DFE3E7" transform="translate(678,354)"/>
<path d="M0 0 C2.59222352 8.686917 -0.84483965 16.93681244 -4 25 C-4.59505764 26.72516711 -5.17943771 28.45407743 -5.75 30.1875 C-5.99234375 30.92355469 -6.2346875 31.65960938 -6.484375 32.41796875 C-6.73960937 33.20107422 -6.73960937 33.20107422 -7 34 C-7.95731 30.9749677 -8.01241731 29.12571084 -7.109375 26.09375 C-6.89563232 25.35495605 -6.68188965 24.61616211 -6.46166992 23.85498047 C-6.22681885 23.07783691 -5.99196777 22.30069336 -5.75 21.5 C-5.28131618 19.88837974 -4.81387193 18.27639849 -4.34765625 16.6640625 C-4.1170752 15.87418945 -3.88649414 15.08431641 -3.64892578 14.27050781 C-2.29927182 9.54824225 -1.15131768 4.77375624 0 0 Z " fill="#DDA556" transform="translate(423,282)"/>
<path d="M0 0 C1.2065625 0.0309375 1.2065625 0.0309375 2.4375 0.0625 C-2.15724404 5.46132424 -6.83926273 10.77583087 -11.5625 16.0625 C-11.5625 13.0625 -11.5625 13.0625 -9.5625 10.0625 C-10.2225 9.7325 -10.8825 9.4025 -11.5625 9.0625 C-10.9025 9.0625 -10.2425 9.0625 -9.5625 9.0625 C-9.2325 8.4025 -8.9025 7.7425 -8.5625 7.0625 C-7.9025 6.77375 -7.2425 6.485 -6.5625 6.1875 C-4.3676306 5.24767976 -4.3676306 5.24767976 -3.875 3 C-3.771875 2.360625 -3.66875 1.72125 -3.5625 1.0625 C-2.5625 0.0625 -2.5625 0.0625 0 0 Z " fill="#D3974C" transform="translate(480.5625,185.9375)"/>
<path d="M0 0 C0.99 0.66 1.98 1.32 3 2 C1.06393789 4.00520718 -0.77131401 5.84061279 -3.0625 7.4375 C-5.404887 9.32652178 -6.57890474 11.37097376 -8 14 C-11.63 13.67 -15.26 13.34 -19 13 C-15 11 -15 11 -11.75 10.4375 C-6.37601188 9.05028832 -3.29900888 4.16446316 0 0 Z " fill="#DEEAF6" transform="translate(402,231)"/>
<path d="M0 0 C1.9375 0.3125 1.9375 0.3125 4 1 C4.33 1.99 4.66 2.98 5 4 C-2.26 4 -9.52 4 -17 4 C-17 3.01 -17 2.02 -17 1 C-11.39 1.33 -5.78 1.66 0 2 C0 1.34 0 0.68 0 0 Z " fill="#303F59" transform="translate(580,323)"/>
<path d="M0 0 C0 0.66 0 1.32 0 2 C0.99 2.33 1.98 2.66 3 3 C2.67 3.66 2.34 4.32 2 5 C1.01 4.34 0.02 3.68 -1 3 C-3.31923274 2.63423946 -3.31923274 2.63423946 -5.88671875 2.5859375 C-6.82451172 2.54726562 -7.76230469 2.50859375 -8.72851562 2.46875 C-9.70498047 2.4378125 -10.68144531 2.406875 -11.6875 2.375 C-12.67556641 2.33632812 -13.66363281 2.29765625 -14.68164062 2.2578125 C-17.12090707 2.16354133 -19.56016595 2.07793782 -22 2 C-22.33 1.34 -22.66 0.68 -23 0 C-19.91722144 -0.1974877 -16.8337715 -0.38123332 -13.75 -0.5625 C-12.87730469 -0.61857422 -12.00460937 -0.67464844 -11.10546875 -0.73242188 C-10.26113281 -0.78076172 -9.41679687 -0.82910156 -8.546875 -0.87890625 C-7.77182617 -0.9260376 -6.99677734 -0.97316895 -6.19824219 -1.02172852 C-3.96887415 -0.99969234 -2.13101433 -0.6303897 0 0 Z " fill="#416190" transform="translate(269,211)"/>
<path d="M0 0 C0.33 0 0.66 0 1 0 C1 1.98 1 3.96 1 6 C4.63 6 8.26 6 12 6 C12 6.99 12 7.98 12 9 C8.37 9 4.74 9 1 9 C1 11.31 1 13.62 1 16 C0.67 16 0.34 16 0 16 C-0.71033431 10.47032059 -1.30267176 5.50016964 0 0 Z " fill="#414961" transform="translate(700,351)"/>
<path d="M0 0 C3.4645173 1.21726284 5.43854318 2.43854318 8 5 C10.10332891 5.71447643 10.10332891 5.71447643 12 6 C12 5.34 12 4.68 12 4 C13.65 4 15.3 4 17 4 C15.02 6.31 13.04 8.62 11 11 C6.84641746 7.56530675 3.21124658 4.36729534 0 0 Z " fill="#F7E4C9" transform="translate(351,278)"/>
<path d="M0 0 C8.46571144 7.08355447 16.84335419 14.76503128 23 24 C14.14502891 20.29516152 4.01225313 8.75751404 0 0 Z " fill="#F9E6D2" transform="translate(338,297)"/>
<path d="M0 0 C1.32 0 2.64 0 4 0 C3.42655063 2.86724686 3.1385485 3.8614515 1 6 C-1.58103306 6.17502995 -4.05308163 6.23162279 -6.6328125 6.1953125 C-7.76056595 6.19106766 -7.76056595 6.19106766 -8.91110229 6.18673706 C-11.31589578 6.17552874 -13.72031881 6.15042352 -16.125 6.125 C-17.75390088 6.11497102 -19.38280758 6.10584503 -21.01171875 6.09765625 C-25.00795556 6.07558735 -29.00391494 6.04105351 -33 6 C-33 5.67 -33 5.34 -33 5 C-22.11 5 -11.22 5 0 5 C0 3.35 0 1.7 0 0 Z " fill="#375E93" transform="translate(393,235)"/>
<path d="M0 0 C4 0 4 0 5.484375 1.3125 C6.65625 2.875 7.828125 4.4375 9 6 C12.11332248 5.33131686 12.11332248 5.33131686 13.1875 2.9375 C13.455625 2.298125 13.72375 1.65875 14 1 C14.99 1 15.98 1 17 1 C15.4169423 5.2742558 12.49431596 7.26531794 9 10 C7.49702124 8.52386015 5.99768715 7.04400843 4.5 5.5625 C3.6646875 4.73878906 2.829375 3.91507812 1.96875 3.06640625 C0 1 0 1 0 0 Z " fill="#AC6F41" transform="translate(352,311)"/>
<path d="M0 0 C0.99 0.33 1.98 0.66 3 1 C0.91679947 3.70044513 -1.15106386 6.14387034 -3.625 8.5 C-6.12043861 10.81473622 -6.12043861 10.81473622 -7.0625 13.6875 C-8 16 -8 16 -10.125 17.3125 C-11.053125 17.6528125 -11.053125 17.6528125 -12 18 C-12.33 17.01 -12.66 16.02 -13 15 C-12.14535156 14.08476562 -11.29070312 13.16953125 -10.41015625 12.2265625 C-9.29415079 11.02615326 -8.17827192 9.82562632 -7.0625 8.625 C-6.49853516 8.02171875 -5.93457031 7.4184375 -5.35351562 6.796875 C-4.54624023 5.92675781 -4.54624023 5.92675781 -3.72265625 5.0390625 C-3.22515869 4.50490723 -2.72766113 3.97075195 -2.21508789 3.42041016 C-0.89706492 1.9954525 -0.89706492 1.9954525 0 0 Z " fill="#EE9B2C" transform="translate(417,229)"/>
<path d="M0 0 C0.33 0 0.66 0 1 0 C1.36567164 6.33830846 1.36567164 6.33830846 -0.3125 9.375 C-3.03076821 11.99259161 -5.59129472 12.12145418 -9.1875 12.0625 C-11.0746875 12.0315625 -11.0746875 12.0315625 -13 12 C-12.67 8.7 -12.34 5.4 -12 2 C-11.67 2 -11.34 2 -11 2 C-10.67 4.31 -10.34 6.62 -10 9 C-9.01 9.33 -8.02 9.66 -7 10 C-7 9.34 -7 8.68 -7 8 C-5.35 8.33 -3.7 8.66 -2 9 C-1.34 6.03 -0.68 3.06 0 0 Z " fill="#D9E0EA" transform="translate(635,355)"/>
<path d="M0 0 C1 2 1 2 0.25 4.375 C-0.97155931 6.94027454 -2.02792558 8.95207656 -4 11 C-5.32 11 -6.64 11 -8 11 C-8.268125 11.598125 -8.53625 12.19625 -8.8125 12.8125 C-9.98493467 14.97224808 -11.19369282 16.35790256 -13 18 C-13.66 17.67 -14.32 17.34 -15 17 C-14.61666504 16.59160889 -14.23333008 16.18321777 -13.83837891 15.76245117 C-12.09836183 13.90620454 -10.36165448 12.04689272 -8.625 10.1875 C-8.02171875 9.54490234 -7.4184375 8.90230469 -6.796875 8.24023438 C-6.21679688 7.61826172 -5.63671875 6.99628906 -5.0390625 6.35546875 C-4.23782959 5.49924927 -4.23782959 5.49924927 -3.42041016 4.62573242 C-1.80420447 2.84684396 -1.80420447 2.84684396 0 0 Z " fill="#E1A953" transform="translate(436,206)"/>
<path d="M0 0 C1.10040377 3.30121132 0.89845619 4.2852767 0.07421875 7.5625 C-0.14556641 8.44164062 -0.36535156 9.32078125 -0.59179688 10.2265625 C-0.82962891 11.14179688 -1.06746094 12.05703125 -1.3125 13 C-1.53873047 13.91523438 -1.76496094 14.83046875 -1.99804688 15.7734375 C-3.7355698 22.6033547 -3.7355698 22.6033547 -6 26 C-5.67 21.38 -5.34 16.76 -5 12 C-4.01 11.67 -3.02 11.34 -2 11 C-1.93941406 10.28972656 -1.87882812 9.57945312 -1.81640625 8.84765625 C-1.73261719 7.92855469 -1.64882813 7.00945312 -1.5625 6.0625 C-1.48128906 5.14597656 -1.40007812 4.22945313 -1.31640625 3.28515625 C-1 1 -1 1 0 0 Z " fill="#E1A855" transform="translate(444,260)"/>
<path d="M0 0 C0.78375 0.33 1.5675 0.66 2.375 1 C-0.30638083 2.34069042 -2.26149261 1.95246807 -5.25 1.8125 C-11.20278211 1.73360771 -14.59435087 2.90421592 -19.625 6 C-19.625 4.68 -19.625 3.36 -19.625 2 C-18.305 2 -16.985 2 -15.625 2 C-15.625 1.34 -15.625 0.68 -15.625 0 C-10.99646715 -2.31426642 -4.81237222 -1.32755096 0 0 Z " fill="#F4DCC2" transform="translate(335.625,264)"/>
<path d="M0 0 C0 3.73864842 -0.85962891 4.23642706 -3.375 6.875 C-5.55252699 9.24850441 -6.92045908 10.80114771 -8.125 13.8125 C-9.34769859 16.86924649 -11.06190697 17.67785814 -14 19 C-14.66 18.67 -15.32 18.34 -16 18 C-15.26394531 17.20335937 -14.52789062 16.40671875 -13.76953125 15.5859375 C-12.78378001 14.5156933 -11.79810712 13.44537693 -10.8125 12.375 C-10.32974609 11.85292969 -9.84699219 11.33085937 -9.34960938 10.79296875 C-6.11982129 7.28138707 -3.02821458 3.68700349 0 0 Z " fill="#F8E5CC" transform="translate(443,230)"/>
<path d="M0 0 C1.24716797 0.00644531 2.49433594 0.01289063 3.77929688 0.01953125 C5.07287109 0.03628906 6.36644531 0.05304688 7.69921875 0.0703125 C9.01212891 0.07933594 10.32503906 0.08835938 11.67773438 0.09765625 C14.91424788 0.12119453 18.15039024 0.1540773 21.38671875 0.1953125 C21.38671875 1.1853125 21.38671875 2.1753125 21.38671875 3.1953125 C20.30777344 2.95409668 20.30777344 2.95409668 19.20703125 2.70800781 C14.61601396 1.87342191 10.04187668 1.96968505 5.38671875 1.9453125 C4.401875 1.9246875 3.41703125 1.9040625 2.40234375 1.8828125 C-4.59340949 1.82004677 -4.59340949 1.82004677 -10.61328125 5.1953125 C-10.94328125 4.2053125 -11.27328125 3.2153125 -11.61328125 2.1953125 C-7.59793057 0.29451586 -4.42331534 -0.04039557 0 0 Z " fill="#DAEAF9" transform="translate(252.61328125,195.8046875)"/>
<path d="M0 0 C6.63154319 5.17583859 11.83321248 11.38651198 17 18 C15.68 18 14.36 18 13 18 C12.67 16.68 12.34 15.36 12 14 C11.34 14 10.68 14 10 14 C10 13.34 10 12.68 10 12 C9.01 11.67 8.02 11.34 7 11 C5.17578125 9.00390625 5.17578125 9.00390625 3.3125 6.5625 C2.68988281 5.75941406 2.06726563 4.95632813 1.42578125 4.12890625 C0 2 0 2 0 0 Z " fill="#F6E0CB" transform="translate(319,276)"/>
<path d="M0 0 C0.99 0 1.98 0 3 0 C3 3.63 3 7.26 3 11 C8.61 11 14.22 11 20 11 C20 11.33 20 11.66 20 12 C17.41703983 12.19522373 14.83395921 12.38144403 12.25 12.5625 C11.52039063 12.61857422 10.79078125 12.67464844 10.0390625 12.73242188 C6.45046349 12.97709908 3.44972775 12.99666259 0 12 C0.875 7.25 0.875 7.25 2 5 C1.34 5 0.68 5 0 5 C0 3.35 0 1.7 0 0 Z " fill="#EEF2F8" transform="translate(640,359)"/>
<path d="M0 0 C0.99 0.33 1.98 0.66 3 1 C3 2.98 3 4.96 3 7 C2.34 7 1.68 7 1 7 C1 7.66 1 8.32 1 9 C-0.875 11.125 -0.875 11.125 -3 13 C-3.66 13 -4.32 13 -5 13 C-4.54554036 11.58208592 -4.08625056 10.16571954 -3.625 8.75 C-3.24214844 7.56664062 -3.24214844 7.56664062 -2.8515625 6.359375 C-2.04826333 4.13372042 -1.10288338 2.09068328 0 0 Z " fill="#DBE1E9" transform="translate(693,349)"/>
<path d="M0 0 C0.33 1.32 0.66 2.64 1 4 C-0.1446875 4.8353125 -0.1446875 4.8353125 -1.3125 5.6875 C-3.96795507 7.97242645 -5.2579107 10.0135612 -7 13 C-7.66 13 -8.32 13 -9 13 C-9 13.66 -9 14.32 -9 15 C-10.32 15.33 -11.64 15.66 -13 16 C-10.73373703 11.88157527 -8.00485839 8.62861358 -4.8125 5.1875 C-4.34908203 4.68541016 -3.88566406 4.18332031 -3.40820312 3.66601562 C-2.27599703 2.44043171 -1.13853521 1.21970658 0 0 Z " fill="#F8E4C6" transform="translate(470,200)"/>
<path d="M0 0 C0.66 0.33 1.32 0.66 2 1 C1.41992188 1.64066406 0.83984375 2.28132812 0.2421875 2.94140625 C-4.24094975 7.90540806 -8.67445028 12.89806956 -13 18 C-13.33 17.01 -13.66 16.02 -14 15 C-12.6875 12.8125 -12.6875 12.8125 -11 11 C-10.34 11 -9.68 11 -9 11 C-8.67 10.01 -8.34 9.02 -8 8 C-6.37660195 6.29115995 -4.70680947 4.62553283 -3 3 C-2.401875 2.401875 -1.80375 1.80375 -1.1875 1.1875 C-0.795625 0.795625 -0.40375 0.40375 0 0 Z " fill="#FAE7C2" transform="translate(445,194)"/>
<path d="M0 0 C8.13952903 -0.61046468 13.5737569 -0.2922002 20 5 C19.67 5.66 19.34 6.32 19 7 C17.9275 6.34 16.855 5.68 15.75 5 C10.31931366 2.2260523 4.95543054 2.64267417 -1 3 C-0.67 2.01 -0.34 1.02 0 0 Z " fill="#F8E6C7" transform="translate(465,175)"/>
<path d="M0 0 C0.66 0.33 1.32 0.66 2 1 C0.10548397 3.06372321 -1.79056563 5.12600157 -3.6875 7.1875 C-4.21794922 7.76564453 -4.74839844 8.34378906 -5.29492188 8.93945312 C-8.4569327 12.3730477 -11.67475068 15.72410503 -15 19 C-15 15 -15 15 -13.71484375 13.578125 C-13.12832031 13.13984375 -12.54179687 12.7015625 -11.9375 12.25 C-7.75646732 8.92050147 -4.43888504 5.07031873 -1 1 C-0.67 0.67 -0.34 0.34 0 0 Z " fill="#FBE6C3" transform="translate(418,224)"/>
<path d="M0 0 C0.99 0.33 1.98 0.66 3 1 C2.25556641 1.51046875 2.25556641 1.51046875 1.49609375 2.03125 C-3.18676697 5.37234228 -6.90972347 8.91303447 -10.5546875 13.36328125 C-12 15 -12 15 -14 16 C-12.75658037 9.62747442 -8.8776898 6.80091677 -4 3 C-3.31679688 2.41605469 -2.63359375 1.83210937 -1.9296875 1.23046875 C-1.29289062 0.82441406 -0.65609375 0.41835937 0 0 Z " fill="#F9E7C4" transform="translate(461,178)"/>
<path d="M0 0 C0.33 0 0.66 0 1 0 C1 2.64 1 5.28 1 8 C0.34 8 -0.32 8 -1 8 C-0.87625 9.2375 -0.87625 9.2375 -0.75 10.5 C-1.060999 14.85398607 -2.30715772 18.51758977 -5 22 C-7.140625 22.73046875 -7.140625 22.73046875 -9 23 C-8.60167969 22.34515625 -8.20335937 21.6903125 -7.79296875 21.015625 C-3.82354275 14.17778168 -1.54061832 7.74363418 0 0 Z " fill="#F9E2C0" transform="translate(430,317)"/>
<path d="M0 0 C2.475 0.99 2.475 0.99 5 2 C5 2.66 5 3.32 5 4 C5.66 4 6.32 4 7 4 C7 4.99 7 5.98 7 7 C8.65 7 10.3 7 12 7 C12.33 7.66 12.66 8.32 13 9 C15.01669827 10.13350534 15.01669827 10.13350534 17 11 C10.27910827 10.75996815 5.68724652 8.99115776 1 4 C0.27734375 1.80078125 0.27734375 1.80078125 0 0 Z M2 2 C2.66 2.66 3.32 3.32 4 4 C4 3.34 4 2.68 4 2 C3.34 2 2.68 2 2 2 Z " fill="#28375B" transform="translate(308,336)"/>
<path d="M0 0 C0.33 0.66 0.66 1.32 1 2 C0.109375 3.91015625 0.109375 3.91015625 -1.25 6.0625 C-1.68828125 6.77535156 -2.1265625 7.48820312 -2.578125 8.22265625 C-4 10 -4 10 -7 11 C-7.309375 11.61875 -7.61875 12.2375 -7.9375 12.875 C-9.20298687 15.40597375 -10.67272837 16.44848558 -13 18 C-13.66 17.67 -14.32 17.34 -15 17 C-14.16855469 16.10796875 -13.33710938 15.2159375 -12.48046875 14.296875 C-11.38271261 13.11467608 -10.2850619 11.93237926 -9.1875 10.75 C-8.64029297 10.16347656 -8.09308594 9.57695312 -7.52929688 8.97265625 C-4.85219687 6.08463321 -2.27491168 3.22478709 0 0 Z " fill="#F8E4CD" transform="translate(415,261)"/>
<path d="M0 0 C0.33 0.66 0.66 1.32 1 2 C-0.64208937 6.3291447 -3.76325494 9.76325494 -7 13 C-9.125 12.625 -9.125 12.625 -11 12 C-10.54109375 11.55269531 -10.0821875 11.10539062 -9.609375 10.64453125 C-6.16447701 7.25029352 -2.92744915 3.86423288 0 0 Z " fill="#F3E1D0" transform="translate(373,308)"/>
<path d="M0 0 C3.66464055 0.4952217 5.70832354 1.0208206 8 4 C9.1577506 7.47325181 9.06866652 10.36067448 9 14 C7 11 7 11 7 7 C6.34 7 5.68 7 5 7 C2.375 4.625 2.375 4.625 0 2 C0 1.34 0 0.68 0 0 Z " fill="#2D3450" transform="translate(595,349)"/>
<path d="M0 0 C0 3 0 3 -1.4375 4.5 C-1.953125 4.995 -2.46875 5.49 -3 6 C-3.33 6.99 -3.66 7.98 -4 9 C-5.70703125 10.75390625 -5.70703125 10.75390625 -7.8125 12.5625 C-8.49957031 13.16191406 -9.18664062 13.76132813 -9.89453125 14.37890625 C-11.86555845 15.89648749 -13.73964261 16.97902958 -16 18 C-4.85714286 4.85714286 -4.85714286 4.85714286 0 0 Z " fill="#E0A954" transform="translate(453,188)"/>
<path d="M0 0 C0 0.33 0 0.66 0 1 C-2.64 1 -5.28 1 -8 1 C-8 1.66 -8 2.32 -8 3 C-9.11375 3.2475 -10.2275 3.495 -11.375 3.75 C-15.04615198 4.61005339 -15.04615198 4.61005339 -16.4375 7.125 C-16.623125 7.74375 -16.80875 8.3625 -17 9 C-17.66 7.68 -18.32 6.36 -19 5 C-12.56558074 0.64821886 -7.74810168 -0.72790099 0 0 Z " fill="#B47B49" transform="translate(334,265)"/>
<path d="M0 0 C2.64 0.33 5.28 0.66 8 1 C8 1.33 8 1.66 8 2 C6.02 2 4.04 2 2 2 C2 2.99 2 3.98 2 5 C2.99 5 3.98 5 5 5 C4.34 7.31 3.68 9.62 3 12 C0.79680323 7.59360646 -0.10924981 5.02549129 0 0 Z " fill="#DAE9F5" transform="translate(297,242)"/>
<path d="M0 0 C1 2 1 2 0.3125 5.0625 C-0.120625 6.031875 -0.55375 7.00125 -1 8 C-2.8125 8.5625 -2.8125 8.5625 -5 9 C-7.7295585 11.47906969 -7.7295585 11.47906969 -10 14 C-10.66 13.67 -11.32 13.34 -12 13 C-8.04 8.71 -4.08 4.42 0 0 Z " fill="#F9E8D3" transform="translate(456,216)"/>
<path d="M0 0 C2.31 0.66 4.62 1.32 7 2 C2.02479657 5.31680229 -2.13107664 5.28398016 -8 5 C-8.66 4.34 -9.32 3.68 -10 3 C-9.36191406 2.95101563 -8.72382812 2.90203125 -8.06640625 2.8515625 C-7.24011719 2.77679688 -6.41382813 2.70203125 -5.5625 2.625 C-4.73878906 2.55539062 -3.91507813 2.48578125 -3.06640625 2.4140625 C-2.38449219 2.27742188 -1.70257812 2.14078125 -1 2 C-0.67 1.34 -0.34 0.68 0 0 Z " fill="#DCE4ED" transform="translate(640,306)"/>
<path d="M0 0 C3.58317958 -0.08720919 7.16608567 -0.14046112 10.75 -0.1875 C11.76578125 -0.21263672 12.7815625 -0.23777344 13.828125 -0.26367188 C14.8078125 -0.27333984 15.7875 -0.28300781 16.796875 -0.29296875 C17.69760742 -0.3086792 18.59833984 -0.32438965 19.52636719 -0.34057617 C22.45308763 0.06238228 23.81341349 1.0655403 26 3 C25.67 3.99 25.34 4.98 25 6 C24.67 5.01 24.34 4.02 24 3 C19.10845663 1.79483714 14.19724878 1.66538566 9.1875 1.4375 C8.30384766 1.39431641 7.42019531 1.35113281 6.50976562 1.30664062 C4.34000377 1.20108464 2.1700209 1.10008929 0 1 C0 0.67 0 0.34 0 0 Z " fill="#DBECFB" transform="translate(246,213)"/>
<path d="M0 0 C3.96 0 7.92 0 12 0 C12 0.33 12 0.66 12 1 C9.69 1.33 7.38 1.66 5 2 C5 2.66 5 3.32 5 4 C6.32 4.33 7.64 4.66 9 5 C6.03 5 3.06 5 0 5 C0 3.35 0 1.7 0 0 Z " fill="#EFF6F8" transform="translate(701,351)"/>
<path d="M0 0 C1.46055379 3.84209373 0.49637507 6.39037478 -0.8125 10.1875 C-1.34810547 11.78658203 -1.34810547 11.78658203 -1.89453125 13.41796875 C-3 16 -3 16 -5 17 C-4.35939198 10.85016303 -2.78504733 5.57009465 0 0 Z " fill="#F7E8CD" transform="translate(414,312)"/>
<path d="M0 0 C0 0.66 0 1.32 0 2 C-2.94131891 2.98043964 -4.82501665 3.11621202 -7.88671875 3.09765625 C-8.82451172 3.09443359 -9.76230469 3.09121094 -10.72851562 3.08789062 C-11.70498047 3.07951172 -12.68144531 3.07113281 -13.6875 3.0625 C-15.16959961 3.05573242 -15.16959961 3.05573242 -16.68164062 3.04882812 C-19.12115474 3.03704303 -21.56054689 3.02059011 -24 3 C-24 2.67 -24 2.34 -24 2 C-22.19402344 1.90912109 -22.19402344 1.90912109 -20.3515625 1.81640625 C-18.77602923 1.73200268 -17.20050904 1.64735459 -15.625 1.5625 C-14.8309375 1.52318359 -14.036875 1.48386719 -13.21875 1.44335938 C-8.56328054 1.18691402 -4.62241331 -0.12164246 0 0 Z " fill="#FBEDDB" transform="translate(408,329)"/>
<path d="M0 0 C1.37344385 4.39844322 0.24307502 7.92504555 -0.9375 12.25 C-1.23043945 13.36761719 -1.23043945 13.36761719 -1.52929688 14.5078125 C-2.01104198 16.34079386 -2.50439225 18.17071818 -3 20 C-3.33 20 -3.66 20 -4 20 C-3.91224337 17.79095369 -3.80405633 15.58271407 -3.6875 13.375 C-3.62949219 12.14523437 -3.57148438 10.91546875 -3.51171875 9.6484375 C-2.98003547 5.8576575 -1.89352204 3.29970329 0 0 Z " fill="#F9E4C3" transform="translate(420,290)"/>
<path d="M0 0 C0.33 0 0.66 0 1 0 C1.25768335 18.26688633 1.25768335 18.26688633 0 23 C-0.99 23.66 -1.98 24.32 -3 25 C-2.01 16.75 -1.02 8.5 0 0 Z " fill="#162545" transform="translate(659,275)"/>
<path d="M0 0 C0.99 0 1.98 0 3 0 C1.55575365 3.23861303 -0.25772247 5.61969163 -2.625 8.25 C-3.25664062 8.95640625 -3.88828125 9.6628125 -4.5390625 10.390625 C-5.02117187 10.92171875 -5.50328125 11.4528125 -6 12 C-6.33 10.68 -6.66 9.36 -7 8 C-6.34 8 -5.68 8 -5 8 C-5 7.34 -5 6.68 -5 6 C-4.34 6 -3.68 6 -3 6 C-2.814375 5.071875 -2.814375 5.071875 -2.625 4.125 C-2 2 -2 2 0 0 Z " fill="#BB804A" transform="translate(393,282)"/>
<path d="M0 0 C1.73745313 2.65728125 2.00831972 3.89600355 1.75 7.125 C1 10 1 10 -1 12 C-2.32 12 -3.64 12 -5 12 C-5 11.34 -5 10.68 -5 10 C-4.01 9.34 -3.02 8.68 -2 8 C-1.21011855 6.04614933 -1.21011855 6.04614933 -0.8125 3.875 C-0.544375 2.59625 -0.27625 1.3175 0 0 Z " fill="#151C38" transform="translate(601,356)"/>
<path d="M0 0 C3.09998746 0.33214151 4.0545012 1.0545012 6.3125 3.3125 C8 6 8 6 7.60546875 8.16796875 C7.40566406 8.77253906 7.20585938 9.37710937 7 10 C5.82739389 8.71372289 4.6620717 7.42080217 3.5 6.125 C2.8503125 5.40570313 2.200625 4.68640625 1.53125 3.9453125 C0 2 0 2 0 0 Z " fill="#181E39" transform="translate(544,355)"/>
<path d="M0 0 C4.54854894 -0.2982655 8.56151204 -0.10962199 13 1 C13 1.66 13 2.32 13 3 C8.05 3 3.1 3 -2 3 C-1.34 2.01 -0.68 1.02 0 0 Z " fill="#CED8E0" transform="translate(393,355)"/>
<path d="M0 0 C1.53445094 3.06890187 0.54984289 5.70094266 0 9 C-0.99 9 -1.98 9 -3 9 C-4.67099977 9.31088368 -6.33871537 9.64080332 -8 10 C-7.59007812 9.52949219 -7.18015625 9.05898438 -6.7578125 8.57421875 C-6.21898437 7.95160156 -5.68015625 7.32898438 -5.125 6.6875 C-4.59132813 6.07261719 -4.05765625 5.45773437 -3.5078125 4.82421875 C-1.8359553 2.86501788 -1.8359553 2.86501788 0 0 Z " fill="#D49348" transform="translate(371,278)"/>
<path d="M0 0 C0.99 0.33 1.98 0.66 3 1 C-1 5 -5 9 -9 13 C-8.4352699 9.09170915 -6.57868029 7.10079777 -3.9375 4.25 C-3.20402344 3.45078125 -2.47054688 2.6515625 -1.71484375 1.828125 C-1.14894531 1.22484375 -0.58304687 0.6215625 0 0 Z " fill="#F8E1BE" transform="translate(386,259)"/>
<path d="M0 0 C2.475 0.495 2.475 0.495 5 1 C5.33 5.29 5.66 9.58 6 14 C4.06061181 11.09091772 3.03225043 8.59137621 1.875 5.3125 C1.52179688 4.31863281 1.16859375 3.32476562 0.8046875 2.30078125 C0.53914063 1.54152344 0.27359375 0.78226563 0 0 Z " fill="#2E5089" transform="translate(272,216)"/>
<path d="M0 0 C2.9375 0.8125 2.9375 0.8125 6 2 C6.33 2.99 6.66 3.98 7 5 C7.99 5.33 8.98 5.66 10 6 C12 9 12 9 11.625 11.1875 C11.41875 11.785625 11.2125 12.38375 11 13 C10.62488281 12.48050781 10.24976563 11.96101562 9.86328125 11.42578125 C6.81914561 7.27747551 3.74720709 3.52678314 0 0 Z " fill="#D7E8F5" transform="translate(276,199)"/>
<path d="M0 0 C0.99 0.33 1.98 0.66 3 1 C3.33 5.95 3.66 10.9 4 16 C1.24175087 10.48350174 -0.29565824 6.20882296 0 0 Z " fill="#D4E3F2" transform="translate(315,310)"/>
<path d="M0 0 C0.99 0.33 1.98 0.66 3 1 C0.03 4.3 -2.94 7.6 -6 11 C-6.66 10.67 -7.32 10.34 -8 10 C-6.75794193 6.27382578 -4.8889325 4.60708543 -2 2 C-1.34 2 -0.68 2 0 2 C0 1.34 0 0.68 0 0 Z " fill="#C2874C" transform="translate(415,258)"/>
<path d="M0 0 C0.33 0 0.66 0 1 0 C1.05406122 1.93719378 1.09282025 3.87481921 1.125 5.8125 C1.14820313 6.89144531 1.17140625 7.97039062 1.1953125 9.08203125 C1 12 1 12 -1 15 C-1.66 15 -2.32 15 -3 15 C-2.68917128 13.24970238 -2.37626821 11.49977306 -2.0625 9.75 C-1.88847656 8.77546875 -1.71445312 7.8009375 -1.53515625 6.796875 C-1.09620271 4.50278205 -0.59651408 2.25708029 0 0 Z " fill="#DD9B4F" transform="translate(414,316)"/>
<path d="M0 0 C-1.20381448 2.49361571 -2.45428722 4.68143083 -4 7 C-4.66 7 -5.32 7 -6 7 C-6 9.64 -6 12.28 -6 15 C-6.33 15 -6.66 15 -7 15 C-7.48279288 10.17207121 -7.82060585 6.34532299 -4.625 2.4375 C-2 0 -2 0 0 0 Z " fill="#121B37" transform="translate(394,359)"/>
<path d="M0 0 C0.66 0 1.32 0 2 0 C1.34 2.97 0.68 5.94 0 9 C-0.99 9 -1.98 9 -3 9 C-3 7.02 -3 5.04 -3 3 C-2.01 2.67 -1.02 2.34 0 2 C0 1.34 0 0.68 0 0 Z " fill="#EDF1F1" transform="translate(588,353)"/>
<path d="M0 0 C0.99 0 1.98 0 3 0 C4.82421875 1.86328125 4.82421875 1.86328125 6.6875 4.3125 C7.31011719 5.11300781 7.93273437 5.91351563 8.57421875 6.73828125 C10 9 10 9 10 12 C8.32737283 10.38113585 6.66204463 8.7547271 5 7.125 C4.071875 6.22007812 3.14375 5.31515625 2.1875 4.3828125 C0 2 0 2 0 0 Z " fill="#B2784A" transform="translate(325,281)"/>
<path d="M0 0 C1.32 0.99 2.64 1.98 4 3 C3 6 3 6 2 7 C1.76924918 8.34747084 1.58846937 9.70377565 1.4375 11.0625 C1.293125 12.361875 1.14875 13.66125 1 15 C0.67 15 0.34 15 0 15 C0 10.05 0 5.1 0 0 Z " fill="#E3ECF6" transform="translate(542,355)"/>
<path d="M0 0 C3.83968859 1.4564336 5.31006462 3.28214217 7 7 C7.1875 10.3125 7.1875 10.3125 7 13 C5 10 5 10 5 6 C4.34 6 3.68 6 3 6 C2.67 6.66 2.34 7.32 2 8 C2 6.02 2 4.04 2 2 C1.34 2 0.68 2 0 2 C0 1.34 0 0.68 0 0 Z " fill="#1C2743" transform="translate(337,359)"/>
<path d="M0 0 C2.0625 0.4375 2.0625 0.4375 4 1 C4 1.99 4 2.98 4 4 C3.34 4 2.68 4 2 4 C2 7.3 2 10.6 2 14 C1.67 14 1.34 14 1 14 C0.63906896 11.85529407 0.28642411 9.70919203 -0.0625 7.5625 C-0.25972656 6.36753906 -0.45695312 5.17257812 -0.66015625 3.94140625 C-0.77230469 2.97074219 -0.88445312 2.00007813 -1 1 C-0.67 0.67 -0.34 0.34 0 0 Z " fill="#EBF0F8" transform="translate(411,360)"/>
<path d="M0 0 C0.33 0 0.66 0 1 0 C1 4.95 1 9.9 1 15 C-0.32 14.01 -1.64 13.02 -3 12 C-3 11.34 -3 10.68 -3 10 C-2.34 10 -1.68 10 -1 10 C-1.01160156 9.36191406 -1.02320313 8.72382813 -1.03515625 8.06640625 C-1.04417969 7.24011719 -1.05320312 6.41382813 -1.0625 5.5625 C-1.07410156 4.73878906 -1.08570313 3.91507812 -1.09765625 3.06640625 C-1 1 -1 1 0 0 Z " fill="#DBE0ED" transform="translate(553,348)"/>
<path d="M0 0 C1.134375 0.020625 2.26875 0.04125 3.4375 0.0625 C2.50164063 0.41441406 2.50164063 0.41441406 1.546875 0.7734375 C-1.16505941 2.43073075 -1.45225997 3.6766599 -2.3125 6.6875 C-2.55484375 7.50476563 -2.7971875 8.32203125 -3.046875 9.1640625 C-3.21703125 9.79054688 -3.3871875 10.41703125 -3.5625 11.0625 C-3.8925 11.0625 -4.2225 11.0625 -4.5625 11.0625 C-4.58938151 9.41675434 -4.60884123 7.77088587 -4.625 6.125 C-4.63660156 5.20847656 -4.64820313 4.29195313 -4.66015625 3.34765625 C-4.49885955 -0.42668664 -3.92591522 0.06887571 0 0 Z " fill="#ECF0F8" transform="translate(742.5625,345.9375)"/>
<path d="M0 0 C0.66 0.99 1.32 1.98 2 3 C1.67 3.99 1.34 4.98 1 6 C0.34 6 -0.32 6 -1 6 C-1.226875 6.7425 -1.45375 7.485 -1.6875 8.25 C-3.24407532 11.51139591 -5.08518854 12.92894975 -8 15 C-6.29231921 11.44961249 -4.25801816 8.20601621 -2.12109375 4.90234375 C-0.84878807 2.89506996 -0.84878807 2.89506996 0 0 Z " fill="#121E3C" transform="translate(562,259)"/>
<path d="M0 0 C1.65 0.33 3.3 0.66 5 1 C3.02 3.31 1.04 5.62 -1 8 C-2 4 -2 4 -1.0625 1.75 C-0.711875 1.1725 -0.36125 0.595 0 0 Z " fill="#C17F46" transform="translate(398,274)"/>
<path d="M0 0 C4.32449714 3.26739784 7.06497913 5.76406117 9 11 C8.67 11.99 8.34 12.98 8 14 C4 7.25 4 7.25 4 5 C3.01 5 2.02 5 1 5 C0.67 3.35 0.34 1.7 0 0 Z " fill="#1D2843" transform="translate(770,254)"/>
<path d="M0 0 C1.32 0.33 2.64 0.66 4 1 C3.16855469 1.70576172 3.16855469 1.70576172 2.3203125 2.42578125 C1.23363281 3.35970703 1.23363281 3.35970703 0.125 4.3125 C-0.59429687 4.92738281 -1.31359375 5.54226562 -2.0546875 6.17578125 C-4.19179331 8.0412324 -4.19179331 8.0412324 -6 11 C-6.66 11 -7.32 11 -8 11 C-7.73911731 7.47808373 -6.75685408 6.78724732 -4 4.375 C-3.01 3.59125 -2.02 2.8075 -1 2 C-0.67 1.34 -0.34 0.68 0 0 Z " fill="#EEA132" transform="translate(428,217)"/>
<path d="M0 0 C0.93087014 2.51334938 1.00671536 3.96474437 0.5 6.625 C-1 9 -1 9 -4.625 10.3125 C-5.73875 10.539375 -6.8525 10.76625 -8 11 C-7.38511719 10.31164062 -7.38511719 10.31164062 -6.7578125 9.609375 C-6.21898437 8.99578125 -5.68015625 8.3821875 -5.125 7.75 C-4.59132813 7.14671875 -4.05765625 6.5434375 -3.5078125 5.921875 C-2.0202513 4.02581254 -0.99677564 2.18709995 0 0 Z " fill="#F5E2C6" transform="translate(485,182)"/>
<path d="M0 0 C0.99 0 1.98 0 3 0 C3 2.97 3 5.94 3 9 C1.35 8.67 -0.3 8.34 -2 8 C-1.34 5.36 -0.68 2.72 0 0 Z " fill="#D4D9E1" transform="translate(509,353)"/>
<path d="M0 0 C0.33 0.99 0.66 1.98 1 3 C-1.97 5.97 -4.94 8.94 -8 12 C-8.66 11.67 -9.32 11.34 -10 11 C-6.7 7.37 -3.4 3.74 0 0 Z " fill="#FAE4CC" transform="translate(426,249)"/>
<path d="M0 0 C0.99 0.33 1.98 0.66 3 1 C0.36 3.97 -2.28 6.94 -5 10 C-5 6.21614086 -4.54668357 4.57981591 -1.9375 1.8125 C-1.298125 1.214375 -0.65875 0.61625 0 0 Z " fill="#C48C4E" transform="translate(429,242)"/>
<path d="M0 0 C1.32 0.33 2.64 0.66 4 1 C1.36 3.64 -1.28 6.28 -4 9 C-4.33 8.01 -4.66 7.02 -5 6 C-4.34 5.01 -3.68 4.02 -3 3 C-2.01 3 -1.02 3 0 3 C0 2.01 0 1.02 0 0 Z " fill="#CD9450" transform="translate(463,204)"/>
<path d="M0 0 C2.31 0.33 4.62 0.66 7 1 C8 4 8 4 7.0625 6.1875 C6.5365625 7.0846875 6.5365625 7.0846875 6 8 C5.566875 7.236875 5.13375 6.47375 4.6875 5.6875 C3.26313215 3.41906232 1.96739903 1.7800277 0 0 Z " fill="#DADFE8" transform="translate(597,348)"/>
<path d="M0 0 C0.33 0 0.66 0 1 0 C1.99 4.29 2.98 8.58 4 13 C3.01 13 2.02 13 1 13 C0.1276588 10.00519083 -0.10829766 7.36424089 -0.0625 4.25 C-0.05347656 3.45078125 -0.04445313 2.6515625 -0.03515625 1.828125 C-0.02355469 1.22484375 -0.01195312 0.6215625 0 0 Z " fill="#CCD7E4" transform="translate(300,318)"/>
<path d="M0 0 C0.33 1.32 0.66 2.64 1 4 C-1.97 6.475 -1.97 6.475 -5 9 C-5.66 8.67 -6.32 8.34 -7 8 C-4.69 5.36 -2.38 2.72 0 0 Z " fill="#D17C2B" transform="translate(394,269)"/>
<path d="M0 0 C0.99 0.33 1.98 0.66 3 1 C0.31941902 4.57410797 -2.42589203 7.31941902 -6 10 C-6 6.41087588 -5.33563446 5.89142971 -3 3.3125 C-2.443125 2.68988281 -1.88625 2.06726563 -1.3125 1.42578125 C-0.879375 0.95527344 -0.44625 0.48476562 0 0 Z " fill="#EFA239" transform="translate(417,229)"/>
<path d="M0 0 C0.99 0.33 1.98 0.66 3 1 C-0.75 7.875 -0.75 7.875 -3 9 C-2.25 2.25 -2.25 2.25 0 0 Z " fill="#CF8A40" transform="translate(441,227)"/>
<path d="M0 0 C2.64752004 2.57784846 4.94432065 4.91648098 7 8 C5.35 7.67 3.7 7.34 2 7 C1.34 4.69 0.68 2.38 0 0 Z " fill="#252C46" transform="translate(724,352)"/>
<path d="M0 0 C1.134375 0.020625 2.26875 0.04125 3.4375 0.0625 C0.90793472 3.1541909 -1.78704612 3.97181332 -5.5625 5.0625 C-4.43693182 0.07784091 -4.43693182 0.07784091 0 0 Z " fill="#345897" transform="translate(375.5625,333.9375)"/>
<path d="M0 0 C0 3.3 0 6.6 0 10 C-0.66 9.01 -1.32 8.02 -2 7 C-2.66 7 -3.32 7 -4 7 C-4 6.34 -4 5.68 -4 5 C-4.66 4.67 -5.32 4.34 -6 4 C-1.125 0 -1.125 0 0 0 Z " fill="#D9E2EF" transform="translate(659,317)"/>
<path d="M0 0 C0.99 0 1.98 0 3 0 C3.66 0.99 4.32 1.98 5 3 C5.99 3.66 6.98 4.32 8 5 C7.01 6.485 7.01 6.485 6 8 C4.99403703 7.0479279 3.99538437 6.08812654 3 5.125 C2.443125 4.59132813 1.88625 4.05765625 1.3125 3.5078125 C0 2 0 2 0 0 Z " fill="#AF6B37" transform="translate(318,273)"/>
<path d="M0 0 C0.33 0.99 0.66 1.98 1 3 C1.350625 3.66 1.70125 4.32 2.0625 5 C3 7 3 7 3 10 C2.34 10 1.68 10 1 10 C1 9.01 1 8.02 1 7 C0.01 6.67 -0.98 6.34 -2 6 C-1.125 1.125 -1.125 1.125 0 0 Z " fill="#F6E8D9" transform="translate(315,267)"/>
<path d="M0 0 C1.25541557 3.76624671 0.37061958 5.37188934 -1 9 C-1.66 8.01 -2.32 7.02 -3 6 C-3.99 6 -4.98 6 -6 6 C-4.02 4.02 -2.04 2.04 0 0 Z " fill="#D5A95D" transform="translate(451,235)"/>
<path d="M0 0 C0.33 0 0.66 0 1 0 C1.25028811 1.58013217 1.47440946 3.16442306 1.6875 4.75 C1.81511719 5.63171875 1.94273437 6.5134375 2.07421875 7.421875 C1.98321474 10.58306697 1.19290886 11.77062948 -1 14 C-1.66 14 -2.32 14 -3 14 C-2.68289063 13.44828125 -2.36578125 12.8965625 -2.0390625 12.328125 C-0.87290025 9.71522011 -0.59954289 7.59420998 -0.375 4.75 C-0.30023438 3.85796875 -0.22546875 2.9659375 -0.1484375 2.046875 C-0.09945313 1.37140625 -0.05046875 0.6959375 0 0 Z " fill="#C0C8D6" transform="translate(411,366)"/>
<path d="M0 0 C-1.32 0.33 -2.64 0.66 -4 1 C-4 1.66 -4 2.32 -4 3 C-6.64 3 -9.28 3 -12 3 C-12 2.34 -12 1.68 -12 1 C-7.93631321 0.22596442 -4.13574827 -0.0984702 0 0 Z " fill="#354466" transform="translate(348,345)"/>
<path d="M0 0 C1.32 0.33 2.64 0.66 4 1 C1.69 3.64 -0.62 6.28 -3 9 C-3.33 8.01 -3.66 7.02 -4 6 C-2.0625 2.8125 -2.0625 2.8125 0 0 Z " fill="#B87D4B" transform="translate(381,295)"/>
<path d="M0 0 C1.32 0 2.64 0 4 0 C2.63016497 3.16115776 2.0109362 3.9927092 -1 6 C-1.66 4.68 -2.32 3.36 -3 2 C-2.01 2 -1.02 2 0 2 C0 1.34 0 0.68 0 0 Z " fill="#C78848" transform="translate(419,252)"/>
<path d="M0 0 C3.01111938 4.51667907 3.10067926 7.6639991 3 13 C-1.15882353 4.97941176 -1.15882353 4.97941176 -0.625 1.6875 C-0.41875 1.130625 -0.2125 0.57375 0 0 Z " fill="#3E5E8E" transform="translate(288,214)"/>
<path d="M0 0 C0.99 0 1.98 0 3 0 C2.65120368 3.25543229 1.97866739 4.01873107 -0.5625 6.25 C-1.366875 6.8275 -2.17125 7.405 -3 8 C-3.33 6.68 -3.66 5.36 -4 4 C-2.68 4 -1.36 4 0 4 C0 2.68 0 1.36 0 0 Z " fill="#F5E5C7" transform="translate(423,216)"/>
<path d="M0 0 C-0.33 1.32 -0.66 2.64 -1 4 C-1.33 3.67 -1.66 3.34 -2 3 C-3.68183948 2.76712992 -5.3712416 2.58735834 -7.0625 2.4375 C-8.44115234 2.31181641 -8.44115234 2.31181641 -9.84765625 2.18359375 C-10.91306641 2.09271484 -10.91306641 2.09271484 -12 2 C-12 1.67 -12 1.34 -12 1 C-10.56496445 0.63597631 -9.12683494 0.28413409 -7.6875 -0.0625 C-6.88699219 -0.25972656 -6.08648438 -0.45695312 -5.26171875 -0.66015625 C-3 -1 -3 -1 0 0 Z " fill="#464F68" transform="translate(634,349)"/>
<path d="M0 0 C0.33 0.99 0.66 1.98 1 3 C-2 5 -2 5 -4.1875 4.625 C-4.785625 4.41875 -5.38375 4.2125 -6 4 C-2.25 0 -2.25 0 0 0 Z " fill="#B2724E" transform="translate(384,334)"/>
<path d="M0 0 C2.9375 0.375 2.9375 0.375 6 1 C6.33 1.66 6.66 2.32 7 3 C8.64363134 3.72159424 10.31050386 4.39351421 12 5 C9 6 9 6 6.9921875 5.29296875 C6.29351563 4.92816406 5.59484375 4.56335938 4.875 4.1875 C4.17117188 3.83042969 3.46734375 3.47335937 2.7421875 3.10546875 C1 2 1 2 0 0 Z " fill="#17243C" transform="translate(719,320)"/>
<path d="M0 0 C3.40424844 1.13474948 4.21653709 1.96811304 6 5 C5.67 5.99 5.34 6.98 5 8 C3.02 5.69 1.04 3.38 -1 1 C-0.67 0.67 -0.34 0.34 0 0 Z " fill="#B97F53" transform="translate(340,296)"/>
<path d="M0 0 C0.66 0 1.32 0 2 0 C0.44499019 3.81684226 -2.03595495 6.19195732 -5 9 C-5.33 8.34 -5.66 7.68 -6 7 C-5.04882866 5.8274869 -4.08882991 4.66212985 -3.125 3.5 C-2.59132813 2.8503125 -2.05765625 2.200625 -1.5078125 1.53125 C-0.76144531 0.77328125 -0.76144531 0.77328125 0 0 Z " fill="#DC8836" transform="translate(374,288)"/>
<path d="M0 0 C-0.33 0.99 -0.66 1.98 -1 3 C-1.99 3 -2.98 3 -4 3 C-4.66 3.99 -5.32 4.98 -6 6 C-6.33 4.35 -6.66 2.7 -7 1 C-4.53721199 -0.231394 -2.7204945 -0.07159196 0 0 Z " fill="#DF8D2C" transform="translate(379,277)"/>
<path d="M0 0 C0.99 0.66 1.98 1.32 3 2 C1.25 4.0625 1.25 4.0625 -1 6 C-3.25 5.75 -3.25 5.75 -5 5 C-3.35 3.35 -1.7 1.7 0 0 Z " fill="#D5E0EF" transform="translate(402,231)"/>
<path d="M0 0 C0.66 0 1.32 0 2 0 C1.3125 2.375 1.3125 2.375 0 5 C-2.625 6.3125 -2.625 6.3125 -5 7 C-3.47793991 4.37098712 -2.15634036 2.15634036 0 0 Z " fill="#E3AD57" transform="translate(459,181)"/>
<path d="M0 0 C0 0.66 0 1.32 0 2 C-0.66 2 -1.32 2 -2 2 C-2 2.66 -2 3.32 -2 4 C-4.375 4.1875 -4.375 4.1875 -7 4 C-7.66 3.01 -8.32 2.02 -9 1 C-2.25 0 -2.25 0 0 0 Z " fill="#DEE6F0" transform="translate(527,363)"/>
<path d="M0 0 C0.66 0 1.32 0 2 0 C2 2.97 2 5.94 2 9 C-0.22189824 6.77810176 -0.92598892 4.91517292 -2 2 C-1.34 1.34 -0.68 0.68 0 0 Z " fill="#ECF0F8" transform="translate(579,354)"/>
<path d="M0 0 C-1 3 -1 3 -2.8125 4.25 C-5.33943414 5.11637742 -6.52221994 4.88492145 -9 4 C-6.43425105 1.43425105 -3.68548192 0 0 0 Z " fill="#F5E0C4" transform="translate(417,344)"/>
<path d="M0 0 C2.3431213 0.25561323 4.67843403 0.59270772 7 1 C7.33 1.66 7.66 2.32 8 3 C10.01669827 4.13350534 10.01669827 4.13350534 12 5 C4.61538462 4.50769231 4.61538462 4.50769231 1.5 1.9375 C1.005 1.298125 0.51 0.65875 0 0 Z " fill="#1D2D4E" transform="translate(313,342)"/>
<path d="M0 0 C2.97 0 5.94 0 9 0 C5.99382731 3.00617269 3.17618402 2.59585316 -1 3 C-0.67 2.01 -0.34 1.02 0 0 Z " fill="#050A30" transform="translate(588,348)"/>
<path d="M0 0 C0.99 0.33 1.98 0.66 3 1 C0.69 3.64 -1.62 6.28 -4 9 C-4.33 8.01 -4.66 7.02 -5 6 C-3.59554165 3.7363436 -1.8032087 1.9791315 0 0 Z " fill="#F9E4BE" transform="translate(400,243)"/>
<path d="M0 0 C1.32 0 2.64 0 4 0 C2.9024777 2.99324263 2.32317108 3.84610901 -0.625 5.25 C-1.40875 5.4975 -2.1925 5.745 -3 6 C-3 5.34 -3 4.68 -3 4 C-2.01 4 -1.02 4 0 4 C-0.33 3.01 -0.66 2.02 -1 1 C-0.67 0.67 -0.34 0.34 0 0 Z " fill="#F7EED8" transform="translate(435,247)"/>
<path d="M0 0 C0.66 0.33 1.32 0.66 2 1 C2.4140625 3.06640625 2.4140625 3.06640625 2.625 5.5625 C2.69976562 6.38878906 2.77453125 7.21507812 2.8515625 8.06640625 C2.92503906 9.02353516 2.92503906 9.02353516 3 10 C0.3144406 7.3144406 -0.06049974 4.62378672 -1 1 C-0.67 0.67 -0.34 0.34 0 0 Z " fill="#DBEAF8" transform="translate(289,212)"/>
<path d="M0 0 C2.475 0.99 2.475 0.99 5 2 C4.67 3.32 4.34 4.64 4 6 C3.34 6 2.68 6 2 6 C1.34 4.02 0.68 2.04 0 0 Z " fill="#CCD3E1" transform="translate(680,359)"/>
<path d="M0 0 C0.66 0 1.32 0 2 0 C1.34 2.31 0.68 4.62 0 7 C-0.99 6.67 -1.98 6.34 -3 6 C-2.01 4.02 -1.02 2.04 0 0 Z " fill="#151C3B" transform="translate(767,353)"/>
<path d="M0 0 C0.99 0.99 1.98 1.98 3 3 C2.67 3.66 2.34 4.32 2 5 C-0.0625 5.625 -0.0625 5.625 -2 6 C-1.34 4.02 -0.68 2.04 0 0 Z " fill="#C0CBD9" transform="translate(770,351)"/>
<path d="M0 0 C1.32 0.99 2.64 1.98 4 3 C3.67 4.65 3.34 6.3 3 8 C0.37613513 4.93882432 0 4.26826873 0 0 Z " fill="#101934" transform="translate(634,350)"/>
<path d="M0 0 C0.66 0.99 1.32 1.98 2 3 C1.01 3.99 0.02 4.98 -1 6 C-1.99 5.67 -2.98 5.34 -4 5 C-2.68 3.35 -1.36 1.7 0 0 Z " fill="#252D4A" transform="translate(586,349)"/>
<path d="M0 0 C1.32 0 2.64 0 4 0 C4.6875 1.8125 4.6875 1.8125 5 4 C3.5625 5.75 3.5625 5.75 2 7 C1.34 4.69 0.68 2.38 0 0 Z " fill="#2A3041" transform="translate(672,348)"/>
<path d="M0 0 C0.598125 0.20625 1.19625 0.4125 1.8125 0.625 C0.4925 1.945 -0.8275 3.265 -2.1875 4.625 C-3.1775 3.635 -4.1675 2.645 -5.1875 1.625 C-2.1875 -0.375 -2.1875 -0.375 0 0 Z " fill="#DAE1EA" transform="translate(637.1875,346.375)"/>
<path d="M0 0 C1.32 0 2.64 0 4 0 C5.75 2.5 5.75 2.5 7 5 C6.01 5 5.02 5 4 5 C1.8125 2.5 1.8125 2.5 0 0 Z " fill="#BC8455" transform="translate(352,311)"/>
<path d="M0 0 C-0.3125 1.9375 -0.3125 1.9375 -1 4 C-1.99 4.33 -2.98 4.66 -4 5 C-4.66 4.01 -5.32 3.02 -6 2 C-2.25 0 -2.25 0 0 0 Z " fill="#BE7133" transform="translate(365,313)"/>
<path d="M0 0 C2 1.375 2 1.375 4 3 C4 3.66 4 4.32 4 5 C2.35 5.33 0.7 5.66 -1 6 C-1.33 5.34 -1.66 4.68 -2 4 C-1.34 4 -0.68 4 0 4 C0 2.68 0 1.36 0 0 Z " fill="#182744" transform="translate(572,229)"/>
<path d="M0 0 C0 0.99 0 1.98 0 3 C-0.99 3.33 -1.98 3.66 -3 4 C-3 4.66 -3 5.32 -3 6 C-4.32 6.33 -5.64 6.66 -7 7 C-5.54744301 3.17053157 -3.57104439 1.87949705 0 0 Z " fill="#F3E7D4" transform="translate(464,209)"/>
</svg>
